<?xml version="1.0" encoding="UTF-8" standalone="no"?>
<!DOCTYPE svg PUBLIC "-//W3C//DTD SVG 1.1//EN"
 "http://www.w3.org/Graphics/SVG/1.1/DTD/svg11.dtd">
<!-- Generated by graphviz version 2.40.1 (20161225.0304)
 -->
<!-- Title: snakemake_dag Pages: 1 -->
<svg width="1756pt" height="270pt"
 viewBox="0.00 0.00 1756.00 270.00" xmlns="http://www.w3.org/2000/svg" xmlns:xlink="http://www.w3.org/1999/xlink">
<g id="graph0" class="graph" transform="scale(1 1) rotate(0) translate(4 266)">
<title>snakemake_dag</title>
<polygon fill="#ffffff" stroke="transparent" points="-4,4 -4,-266 1752,-266 1752,4 -4,4"/>
<!-- 0 -->
<g id="node1" class="node">
<title>0</title>
<path fill="none" stroke="#56d8c9" stroke-width="2" stroke-dasharray="5,2" d="M851.5,-36C851.5,-36 807.5,-36 807.5,-36 801.5,-36 795.5,-30 795.5,-24 795.5,-24 795.5,-12 795.5,-12 795.5,-6 801.5,0 807.5,0 807.5,0 851.5,0 851.5,0 857.5,0 863.5,-6 863.5,-12 863.5,-12 863.5,-24 863.5,-24 863.5,-30 857.5,-36 851.5,-36"/>
<text text-anchor="middle" x="829.5" y="-15.5" font-family="sans" font-size="10.00" fill="#000000">all_figures</text>
</g>
<!-- 1 -->
<g id="node2" class="node">
<title>1</title>
<path fill="none" stroke="#567bd8" stroke-width="2" stroke-dasharray="5,2" d="M125,-110.5C125,-110.5 12,-110.5 12,-110.5 6,-110.5 0,-104.5 0,-98.5 0,-98.5 0,-86.5 0,-86.5 0,-80.5 6,-74.5 12,-74.5 12,-74.5 125,-74.5 125,-74.5 131,-74.5 137,-80.5 137,-86.5 137,-86.5 137,-98.5 137,-98.5 137,-104.5 131,-110.5 125,-110.5"/>
<text text-anchor="middle" x="68.5" y="-90" font-family="sans" font-size="10.00" fill="#000000">get_neo_03_architecture</text>
</g>
<!-- 1&#45;&gt;0 -->
<g id="edge1" class="edge">
<title>1&#45;&gt;0</title>
<path fill="none" stroke="#c0c0c0" stroke-width="2" d="M133.0113,-74.4153C137.22,-73.5175 141.4094,-72.7 145.5,-72 384.4045,-31.1156 675.6473,-21.1088 785.1032,-18.7236"/>
<polygon fill="#c0c0c0" stroke="#c0c0c0" stroke-width="2" points="785.499,-22.2162 795.4244,-18.5098 785.354,-15.2177 785.499,-22.2162"/>
</g>
<!-- 2 -->
<g id="node3" class="node">
<title>2</title>
<path fill="none" stroke="#d8c356" stroke-width="2" stroke-dasharray="5,2" d="M280,-110.5C280,-110.5 167,-110.5 167,-110.5 161,-110.5 155,-104.5 155,-98.5 155,-98.5 155,-86.5 155,-86.5 155,-80.5 161,-74.5 167,-74.5 167,-74.5 280,-74.5 280,-74.5 286,-74.5 292,-80.5 292,-86.5 292,-86.5 292,-98.5 292,-98.5 292,-104.5 286,-110.5 280,-110.5"/>
<text text-anchor="middle" x="223.5" y="-90" font-family="sans" font-size="10.00" fill="#000000">get_neo_07_architecture</text>
</g>
<!-- 2&#45;&gt;0 -->
<g id="edge2" class="edge">
<title>2&#45;&gt;0</title>
<path fill="none" stroke="#c0c0c0" stroke-width="2" d="M289.2999,-74.4393C293.4138,-73.5485 297.5048,-72.7248 301.5,-72 478.9762,-39.8031 693.7526,-25.2718 785.0187,-20.2152"/>
<polygon fill="#c0c0c0" stroke="#c0c0c0" stroke-width="2" points="785.4731,-23.6957 795.2686,-19.6586 785.0935,-16.706 785.4731,-23.6957"/>
</g>
<!-- 3 -->
<g id="node4" class="node">
<title>3</title>
<path fill="none" stroke="#9fd856" stroke-width="2" stroke-dasharray="5,2" d="M452.5,-110.5C452.5,-110.5 322.5,-110.5 322.5,-110.5 316.5,-110.5 310.5,-104.5 310.5,-98.5 310.5,-98.5 310.5,-86.5 310.5,-86.5 310.5,-80.5 316.5,-74.5 322.5,-74.5 322.5,-74.5 452.5,-74.5 452.5,-74.5 458.5,-74.5 464.5,-80.5 464.5,-86.5 464.5,-86.5 464.5,-98.5 464.5,-98.5 464.5,-104.5 458.5,-110.5 452.5,-110.5"/>
<text text-anchor="middle" x="387.5" y="-90" font-family="sans" font-size="10.00" fill="#000000">get_neo_future_architecture</text>
</g>
<!-- 3&#45;&gt;0 -->
<g id="edge3" class="edge">
<title>3&#45;&gt;0</title>
<path fill="none" stroke="#c0c0c0" stroke-width="2" d="M464.8702,-74.6893C469.4753,-73.7477 474.0447,-72.8435 478.5,-72 588.3289,-51.2064 718.6409,-32.7811 785.3382,-23.7987"/>
<polygon fill="#c0c0c0" stroke="#c0c0c0" stroke-width="2" points="786.0371,-27.2365 795.4836,-22.4393 785.1073,-20.2985 786.0371,-27.2365"/>
</g>
<!-- 4 -->
<g id="node5" class="node">
<title>4</title>
<path fill="none" stroke="#d87d56" stroke-width="2" stroke-dasharray="5,2" d="M980.5,-110.5C980.5,-110.5 926.5,-110.5 926.5,-110.5 920.5,-110.5 914.5,-104.5 914.5,-98.5 914.5,-98.5 914.5,-86.5 914.5,-86.5 914.5,-80.5 920.5,-74.5 926.5,-74.5 926.5,-74.5 980.5,-74.5 980.5,-74.5 986.5,-74.5 992.5,-80.5 992.5,-86.5 992.5,-86.5 992.5,-98.5 992.5,-98.5 992.5,-104.5 986.5,-110.5 980.5,-110.5"/>
<text text-anchor="middle" x="953.5" y="-90" font-family="sans" font-size="10.00" fill="#000000">plot_neo_ios</text>
</g>
<!-- 4&#45;&gt;0 -->
<g id="edge4" class="edge">
<title>4&#45;&gt;0</title>
<path fill="none" stroke="#c0c0c0" stroke-width="2" d="M923.4831,-74.4656C907.0032,-64.5644 886.3717,-52.1689 868.6407,-41.516"/>
<polygon fill="#c0c0c0" stroke="#c0c0c0" stroke-width="2" points="870.0447,-38.2764 859.6703,-36.1265 866.4397,-44.2768 870.0447,-38.2764"/>
</g>
<!-- 5 -->
<g id="node6" class="node">
<title>5</title>
<path fill="none" stroke="#59d856" stroke-width="2" stroke-dasharray="5,2" d="M542,-187.5C542,-187.5 465,-187.5 465,-187.5 459,-187.5 453,-181.5 453,-175.5 453,-175.5 453,-163.5 453,-163.5 453,-157.5 459,-151.5 465,-151.5 465,-151.5 542,-151.5 542,-151.5 548,-151.5 554,-157.5 554,-163.5 554,-163.5 554,-175.5 554,-175.5 554,-181.5 548,-187.5 542,-187.5"/>
<text text-anchor="middle" x="503.5" y="-167" font-family="sans" font-size="10.00" fill="#000000">visualize_scidata</text>
</g>
<!-- 5&#45;&gt;0 -->
<g id="edge5" class="edge">
<title>5&#45;&gt;0</title>
<path fill="none" stroke="#c0c0c0" stroke-width="2" d="M512.0255,-151.2282C523.4415,-128.8771 545.8637,-91.6024 576.5,-72 610.6344,-50.1595 722.3574,-32.278 785.3241,-23.6263"/>
<polygon fill="#c0c0c0" stroke="#c0c0c0" stroke-width="2" points="785.9245,-27.0771 795.365,-22.2681 784.9861,-20.1402 785.9245,-27.0771"/>
</g>
<!-- 6 -->
<g id="node7" class="node">
<title>6</title>
<path fill="none" stroke="#d8a456" stroke-width="2" stroke-dasharray="5,2" d="M423,-187.5C423,-187.5 346,-187.5 346,-187.5 340,-187.5 334,-181.5 334,-175.5 334,-175.5 334,-163.5 334,-163.5 334,-157.5 340,-151.5 346,-151.5 346,-151.5 423,-151.5 423,-151.5 429,-151.5 435,-157.5 435,-163.5 435,-163.5 435,-175.5 435,-175.5 435,-181.5 429,-187.5 423,-187.5"/>
<text text-anchor="middle" x="384.5" y="-167" font-family="sans" font-size="10.00" fill="#000000">annotate_scidata</text>
</g>
<!-- 6&#45;&gt;0 -->
<g id="edge6" class="edge">
<title>6&#45;&gt;0</title>
<path fill="none" stroke="#c0c0c0" stroke-width="2" d="M413.5179,-151.4248C430.9914,-140.4548 453.6317,-126.0895 473.5,-113 500.4709,-95.2312 503.6267,-84.2778 533.5,-72 618.2767,-37.157 725.8966,-24.709 785.2189,-20.3253"/>
<polygon fill="#c0c0c0" stroke="#c0c0c0" stroke-width="2" points="785.6334,-23.805 795.3665,-19.6198 785.1478,-16.8218 785.6334,-23.805"/>
</g>
<!-- 7 -->
<g id="node8" class="node">
<title>7</title>
<path fill="none" stroke="#c6d856" stroke-width="2" stroke-dasharray="5,2" d="M1190,-113C1190,-113 1023,-113 1023,-113 1017,-113 1011,-107 1011,-101 1011,-101 1011,-84 1011,-84 1011,-78 1017,-72 1023,-72 1023,-72 1190,-72 1190,-72 1196,-72 1202,-78 1202,-84 1202,-84 1202,-101 1202,-101 1202,-107 1196,-113 1190,-113"/>
<text text-anchor="middle" x="1106.5" y="-101" font-family="sans" font-size="10.00" fill="#000000">escape_underscores</text>
<text text-anchor="middle" x="1106.5" y="-90" font-family="sans" font-size="10.00" fill="#000000">ext: svg</text>
<text text-anchor="middle" x="1106.5" y="-79" font-family="sans" font-size="10.00" fill="#000000">filename: discussion_global_picture</text>
</g>
<!-- 7&#45;&gt;0 -->
<g id="edge7" class="edge">
<title>7&#45;&gt;0</title>
<path fill="none" stroke="#c0c0c0" stroke-width="2" d="M1030.0753,-71.9453C979.7759,-58.4172 915.7038,-41.1848 873.6882,-29.8845"/>
<polygon fill="#c0c0c0" stroke="#c0c0c0" stroke-width="2" points="874.3311,-26.4331 863.7652,-27.2157 872.513,-33.1929 874.3311,-26.4331"/>
</g>
<!-- 8 -->
<g id="node9" class="node">
<title>8</title>
<path fill="none" stroke="#c6d856" stroke-width="2" stroke-dasharray="5,2" d="M1338.5,-113C1338.5,-113 1232.5,-113 1232.5,-113 1226.5,-113 1220.5,-107 1220.5,-101 1220.5,-101 1220.5,-84 1220.5,-84 1220.5,-78 1226.5,-72 1232.5,-72 1232.5,-72 1338.5,-72 1338.5,-72 1344.5,-72 1350.5,-78 1350.5,-84 1350.5,-84 1350.5,-101 1350.5,-101 1350.5,-107 1344.5,-113 1338.5,-113"/>
<text text-anchor="middle" x="1285.5" y="-101" font-family="sans" font-size="10.00" fill="#000000">escape_underscores</text>
<text text-anchor="middle" x="1285.5" y="-90" font-family="sans" font-size="10.00" fill="#000000">ext: svg</text>
<text text-anchor="middle" x="1285.5" y="-79" font-family="sans" font-size="10.00" fill="#000000">filename: scidata_gaps</text>
</g>
<!-- 8&#45;&gt;0 -->
<g id="edge8" class="edge">
<title>8&#45;&gt;0</title>
<path fill="none" stroke="#c0c0c0" stroke-width="2" d="M1220.1708,-74.1223C1216.9095,-73.3686 1213.6726,-72.6557 1210.5,-72 1089.6824,-47.0301 944.9137,-29.9853 873.6172,-22.4253"/>
<polygon fill="#c0c0c0" stroke="#c0c0c0" stroke-width="2" points="873.9534,-18.9414 863.6428,-21.3789 873.223,-25.9032 873.9534,-18.9414"/>
</g>
<!-- 9 -->
<g id="node10" class="node">
<title>9</title>
<path fill="none" stroke="#c6d856" stroke-width="2" stroke-dasharray="5,2" d="M1568,-113C1568,-113 1381,-113 1381,-113 1375,-113 1369,-107 1369,-101 1369,-101 1369,-84 1369,-84 1369,-78 1375,-72 1381,-72 1381,-72 1568,-72 1568,-72 1574,-72 1580,-78 1580,-84 1580,-84 1580,-101 1580,-101 1580,-107 1574,-113 1568,-113"/>
<text text-anchor="middle" x="1474.5" y="-101" font-family="sans" font-size="10.00" fill="#000000">escape_underscores</text>
<text text-anchor="middle" x="1474.5" y="-90" font-family="sans" font-size="10.00" fill="#000000">ext: svg</text>
<text text-anchor="middle" x="1474.5" y="-79" font-family="sans" font-size="10.00" fill="#000000">filename: introduction/odML_DataModel</text>
</g>
<!-- 9&#45;&gt;0 -->
<g id="edge9" class="edge">
<title>9&#45;&gt;0</title>
<path fill="none" stroke="#c0c0c0" stroke-width="2" d="M1368.9563,-73.3693C1365.7708,-72.8933 1362.6131,-72.4354 1359.5,-72 1180.0143,-46.8947 964.7813,-28.5846 873.6802,-21.3759"/>
<polygon fill="#c0c0c0" stroke="#c0c0c0" stroke-width="2" points="873.9531,-17.8866 863.7095,-20.5921 873.4045,-24.8651 873.9531,-17.8866"/>
</g>
<!-- 10 -->
<g id="node11" class="node">
<title>10</title>
<path fill="none" stroke="#56d8a2" stroke-width="2" stroke-dasharray="5,2" d="M1470.5,-187.5C1470.5,-187.5 1380.5,-187.5 1380.5,-187.5 1374.5,-187.5 1368.5,-181.5 1368.5,-175.5 1368.5,-175.5 1368.5,-163.5 1368.5,-163.5 1368.5,-157.5 1374.5,-151.5 1380.5,-151.5 1380.5,-151.5 1470.5,-151.5 1470.5,-151.5 1476.5,-151.5 1482.5,-157.5 1482.5,-163.5 1482.5,-163.5 1482.5,-175.5 1482.5,-175.5 1482.5,-181.5 1476.5,-187.5 1470.5,-187.5"/>
<text text-anchor="middle" x="1425.5" y="-167" font-family="sans" font-size="10.00" fill="#000000">plot_odml_structure</text>
</g>
<!-- 10&#45;&gt;0 -->
<g id="edge10" class="edge">
<title>10&#45;&gt;0</title>
<path fill="none" stroke="#c0c0c0" stroke-width="2" d="M1482.8454,-153.1679C1527.145,-139.9754 1581.9873,-122.1504 1588.5,-113 1599.0665,-98.1542 1600.9194,-85.3344 1588.5,-72 1564.0212,-45.7177 1033.2518,-25.1153 874.17,-19.5132"/>
<polygon fill="#c0c0c0" stroke="#c0c0c0" stroke-width="2" points="873.9199,-16.0024 863.8037,-19.1509 873.6753,-22.9981 873.9199,-16.0024"/>
</g>
<!-- 11 -->
<g id="node12" class="node">
<title>11</title>
<path fill="none" stroke="#c6d856" stroke-width="2" stroke-dasharray="5,2" d="M1736,-190C1736,-190 1527,-190 1527,-190 1521,-190 1515,-184 1515,-178 1515,-178 1515,-161 1515,-161 1515,-155 1521,-149 1527,-149 1527,-149 1736,-149 1736,-149 1742,-149 1748,-155 1748,-161 1748,-161 1748,-178 1748,-178 1748,-184 1742,-190 1736,-190"/>
<text text-anchor="middle" x="1631.5" y="-178" font-family="sans" font-size="10.00" fill="#000000">escape_underscores</text>
<text text-anchor="middle" x="1631.5" y="-167" font-family="sans" font-size="10.00" fill="#000000">ext: svg</text>
<text text-anchor="middle" x="1631.5" y="-156" font-family="sans" font-size="10.00" fill="#000000">filename: introduction/nix_example_merged</text>
</g>
<!-- 11&#45;&gt;0 -->
<g id="edge11" class="edge">
<title>11&#45;&gt;0</title>
<path fill="none" stroke="#c0c0c0" stroke-width="2" d="M1632.8977,-148.7283C1633.1617,-126.0939 1629.6445,-90.6282 1607.5,-72 1579.2391,-48.2266 1033.9005,-25.7474 873.5094,-19.6287"/>
<polygon fill="#c0c0c0" stroke="#c0c0c0" stroke-width="2" points="873.6364,-16.1311 863.5109,-19.2495 873.3711,-23.126 873.6364,-16.1311"/>
</g>
<!-- 12 -->
<g id="node13" class="node">
<title>12</title>
<path fill="none" stroke="#56c9d8" stroke-width="2" stroke-dasharray="5,2" d="M676.5,-187.5C676.5,-187.5 584.5,-187.5 584.5,-187.5 578.5,-187.5 572.5,-181.5 572.5,-175.5 572.5,-175.5 572.5,-163.5 572.5,-163.5 572.5,-157.5 578.5,-151.5 584.5,-151.5 584.5,-151.5 676.5,-151.5 676.5,-151.5 682.5,-151.5 688.5,-157.5 688.5,-163.5 688.5,-163.5 688.5,-175.5 688.5,-175.5 688.5,-181.5 682.5,-187.5 676.5,-187.5"/>
<text text-anchor="middle" x="630.5" y="-167" font-family="sans" font-size="10.00" fill="#000000">run_demo_workflow</text>
</g>
<!-- 12&#45;&gt;0 -->
<g id="edge12" class="edge">
<title>12&#45;&gt;0</title>
<path fill="none" stroke="#c0c0c0" stroke-width="2" d="M611.8597,-151.455C592.6555,-130.6633 568.0628,-96.2524 587.5,-72 611.7901,-41.6924 722.0816,-27.2807 785.0606,-21.4143"/>
<polygon fill="#c0c0c0" stroke="#c0c0c0" stroke-width="2" points="785.4684,-24.8918 795.1159,-20.5127 784.8432,-17.9198 785.4684,-24.8918"/>
</g>
<!-- 13 -->
<g id="node14" class="node">
<title>13</title>
<path fill="none" stroke="#c6d856" stroke-width="2" stroke-dasharray="5,2" d="M770.5,-113C770.5,-113 608.5,-113 608.5,-113 602.5,-113 596.5,-107 596.5,-101 596.5,-101 596.5,-84 596.5,-84 596.5,-78 602.5,-72 608.5,-72 608.5,-72 770.5,-72 770.5,-72 776.5,-72 782.5,-78 782.5,-84 782.5,-84 782.5,-101 782.5,-101 782.5,-107 776.5,-113 770.5,-113"/>
<text text-anchor="middle" x="689.5" y="-101" font-family="sans" font-size="10.00" fill="#000000">escape_underscores</text>
<text text-anchor="middle" x="689.5" y="-90" font-family="sans" font-size="10.00" fill="#000000">ext: svg</text>
<text text-anchor="middle" x="689.5" y="-79" font-family="sans" font-size="10.00" fill="#000000">filename: workflows/python_demo</text>
</g>
<!-- 12&#45;&gt;13 -->
<g id="edge28" class="edge">
<title>12&#45;&gt;13</title>
<path fill="none" stroke="#c0c0c0" stroke-width="2" d="M644.4822,-151.2521C651.3507,-142.2881 659.7882,-131.2764 667.4948,-121.2186"/>
<polygon fill="#c0c0c0" stroke="#c0c0c0" stroke-width="2" points="670.442,-123.1268 673.746,-113.0603 664.8856,-118.8693 670.442,-123.1268"/>
</g>
<!-- 13&#45;&gt;0 -->
<g id="edge13" class="edge">
<title>13&#45;&gt;0</title>
<path fill="none" stroke="#c0c0c0" stroke-width="2" d="M728.1262,-71.9453C746.2103,-62.322 767.8168,-50.8243 786.4273,-40.9208"/>
<polygon fill="#c0c0c0" stroke="#c0c0c0" stroke-width="2" points="788.1104,-43.9899 795.2941,-36.2024 784.822,-37.8104 788.1104,-43.9899"/>
</g>
<!-- 14 -->
<g id="node15" class="node">
<title>14</title>
<path fill="none" stroke="#c6d856" stroke-width="2" stroke-dasharray="5,2" d="M902,-190C902,-190 719,-190 719,-190 713,-190 707,-184 707,-178 707,-178 707,-161 707,-161 707,-155 713,-149 719,-149 719,-149 902,-149 902,-149 908,-149 914,-155 914,-161 914,-161 914,-178 914,-178 914,-184 908,-190 902,-190"/>
<text text-anchor="middle" x="810.5" y="-178" font-family="sans" font-size="10.00" fill="#000000">escape_underscores</text>
<text text-anchor="middle" x="810.5" y="-167" font-family="sans" font-size="10.00" fill="#000000">ext: svg</text>
<text text-anchor="middle" x="810.5" y="-156" font-family="sans" font-size="10.00" fill="#000000">filename: workflows/rulegraph_colored</text>
</g>
<!-- 14&#45;&gt;0 -->
<g id="edge14" class="edge">
<title>14&#45;&gt;0</title>
<path fill="none" stroke="#c0c0c0" stroke-width="2" d="M813.102,-148.7522C816.4331,-122.1917 822.2189,-76.0569 825.9518,-46.2921"/>
<polygon fill="#c0c0c0" stroke="#c0c0c0" stroke-width="2" points="829.4542,-46.4912 827.2259,-36.1333 822.5086,-45.6201 829.4542,-46.4912"/>
</g>
<!-- 15 -->
<g id="node16" class="node">
<title>15</title>
<path fill="none" stroke="#56d87b" stroke-width="2" stroke-dasharray="5,2" d="M991,-187.5C991,-187.5 944,-187.5 944,-187.5 938,-187.5 932,-181.5 932,-175.5 932,-175.5 932,-163.5 932,-163.5 932,-157.5 938,-151.5 944,-151.5 944,-151.5 991,-151.5 991,-151.5 997,-151.5 1003,-157.5 1003,-163.5 1003,-163.5 1003,-175.5 1003,-175.5 1003,-181.5 997,-187.5 991,-187.5"/>
<text text-anchor="middle" x="967.5" y="-167" font-family="sans" font-size="10.00" fill="#000000">plot_trends</text>
</g>
<!-- 15&#45;&gt;0 -->
<g id="edge15" class="edge">
<title>15&#45;&gt;0</title>
<path fill="none" stroke="#c0c0c0" stroke-width="2" d="M932.1757,-151.3786C909.0267,-138.9717 881.4543,-123.0128 872.5,-113 855.259,-93.7209 843.8695,-66.3736 837.1699,-45.9674"/>
<polygon fill="#c0c0c0" stroke="#c0c0c0" stroke-width="2" points="840.4744,-44.8064 834.1702,-36.2912 833.7883,-46.8792 840.4744,-44.8064"/>
</g>
<!-- 16 -->
<g id="node17" class="node">
<title>16</title>
<path fill="none" stroke="#d85656" stroke-width="2" stroke-dasharray="5,2" d="M1080,-262C1080,-262 1021,-262 1021,-262 1015,-262 1009,-256 1009,-250 1009,-250 1009,-238 1009,-238 1009,-232 1015,-226 1021,-226 1021,-226 1080,-226 1080,-226 1086,-226 1092,-232 1092,-238 1092,-238 1092,-250 1092,-250 1092,-256 1086,-262 1080,-262"/>
<text text-anchor="middle" x="1050.5" y="-241.5" font-family="sans" font-size="10.00" fill="#000000">copy_sources</text>
</g>
<!-- 16&#45;&gt;0 -->
<g id="edge16" class="edge">
<title>16&#45;&gt;0</title>
<path fill="none" stroke="#c0c0c0" stroke-width="2" d="M1047.6565,-225.6908C1043.4205,-204.4258 1033.4572,-169.6333 1011.5,-149 975.2426,-114.9287 946.2314,-141.5728 905.5,-113 905.0475,-112.6826 872.6633,-72.1257 850.3188,-44.1125"/>
<polygon fill="#c0c0c0" stroke="#c0c0c0" stroke-width="2" points="853.0071,-41.87 844.0356,-36.2342 847.5345,-46.2346 853.0071,-41.87"/>
</g>
<!-- 16&#45;&gt;4 -->
<g id="edge17" class="edge">
<title>16&#45;&gt;4</title>
<path fill="none" stroke="#c0c0c0" stroke-width="2" d="M1054.275,-225.7693C1057.4525,-205.5153 1059.509,-172.567 1045.5,-149 1039.7851,-139.3859 1019.4054,-126.4571 999.2754,-115.3934"/>
<polygon fill="#c0c0c0" stroke="#c0c0c0" stroke-width="2" points="1000.8683,-112.276 990.4036,-110.621 997.5522,-118.4407 1000.8683,-112.276"/>
</g>
<!-- 16&#45;&gt;5 -->
<g id="edge19" class="edge">
<title>16&#45;&gt;5</title>
<path fill="none" stroke="#c0c0c0" stroke-width="2" d="M1008.9521,-242.454C924.2295,-238.6336 725.8033,-226.2655 563.5,-190 563.3993,-189.9775 563.2985,-189.9549 563.1977,-189.9322"/>
<polygon fill="#c0c0c0" stroke="#c0c0c0" stroke-width="2" points="564.2377,-186.5849 553.6858,-187.5377 562.5288,-193.3731 564.2377,-186.5849"/>
</g>
<!-- 16&#45;&gt;6 -->
<g id="edge21" class="edge">
<title>16&#45;&gt;6</title>
<path fill="none" stroke="#c0c0c0" stroke-width="2" d="M1008.8445,-241.6308C890.1835,-234.6698 551.9818,-213.3 443.5,-190 443.3973,-189.9779 443.2945,-189.9558 443.1917,-189.9334"/>
<polygon fill="#c0c0c0" stroke="#c0c0c0" stroke-width="2" points="444.0455,-186.5392 433.4976,-187.5351 442.3643,-193.3344 444.0455,-186.5392"/>
</g>
<!-- 16&#45;&gt;7 -->
<g id="edge22" class="edge">
<title>16&#45;&gt;7</title>
<path fill="none" stroke="#c0c0c0" stroke-width="2" d="M1063.6408,-225.7849C1070.4147,-215.6635 1078.319,-202.6003 1083.5,-190 1092.3579,-168.4574 1098.2426,-142.7697 1101.8407,-123.1702"/>
<polygon fill="#c0c0c0" stroke="#c0c0c0" stroke-width="2" points="1105.3004,-123.7035 1103.5631,-113.2521 1098.4036,-122.5057 1105.3004,-123.7035"/>
</g>
<!-- 16&#45;&gt;8 -->
<g id="edge23" class="edge">
<title>16&#45;&gt;8</title>
<path fill="none" stroke="#c0c0c0" stroke-width="2" d="M1078.8465,-225.7256C1120.3337,-198.9796 1197.7936,-149.0426 1245.1928,-118.4853"/>
<polygon fill="#c0c0c0" stroke="#c0c0c0" stroke-width="2" points="1247.1696,-121.3752 1253.678,-113.0151 1243.3767,-115.4918 1247.1696,-121.3752"/>
</g>
<!-- 16&#45;&gt;9 -->
<g id="edge24" class="edge">
<title>16&#45;&gt;9</title>
<path fill="none" stroke="#c0c0c0" stroke-width="2" d="M1092.3151,-229.059C1165.8168,-202.796 1318.7564,-148.1489 1407.2615,-116.5251"/>
<polygon fill="#c0c0c0" stroke="#c0c0c0" stroke-width="2" points="1408.6965,-119.7291 1416.9358,-113.0684 1406.3411,-113.1373 1408.6965,-119.7291"/>
</g>
<!-- 16&#45;&gt;10 -->
<g id="edge25" class="edge">
<title>16&#45;&gt;10</title>
<path fill="none" stroke="#c0c0c0" stroke-width="2" d="M1092.4522,-235.8744C1146.399,-225.3998 1242.9725,-206.5615 1325.5,-190 1336.1426,-187.8643 1347.417,-185.577 1358.4117,-183.333"/>
<polygon fill="#c0c0c0" stroke="#c0c0c0" stroke-width="2" points="1359.3078,-186.7222 1368.404,-181.2899 1357.9055,-179.8641 1359.3078,-186.7222"/>
</g>
<!-- 16&#45;&gt;11 -->
<g id="edge26" class="edge">
<title>16&#45;&gt;11</title>
<path fill="none" stroke="#c0c0c0" stroke-width="2" d="M1092.1912,-239.2265C1170.5034,-230.1865 1344.9133,-209.7042 1491.5,-190 1495.7453,-189.4293 1500.0618,-188.8413 1504.4201,-188.2409"/>
<polygon fill="#c0c0c0" stroke="#c0c0c0" stroke-width="2" points="1505.2282,-191.6624 1514.6516,-186.82 1504.2652,-184.7289 1505.2282,-191.6624"/>
</g>
<!-- 16&#45;&gt;12 -->
<g id="edge27" class="edge">
<title>16&#45;&gt;12</title>
<path fill="none" stroke="#c0c0c0" stroke-width="2" d="M1008.8303,-239.611C942.4196,-232.1727 808.7165,-215.38 697.5,-190 697.3962,-189.9763 697.2924,-189.9526 697.1885,-189.9287"/>
<polygon fill="#c0c0c0" stroke="#c0c0c0" stroke-width="2" points="697.9154,-186.5033 687.3689,-187.5147 696.2442,-193.3009 697.9154,-186.5033"/>
</g>
<!-- 16&#45;&gt;14 -->
<g id="edge29" class="edge">
<title>16&#45;&gt;14</title>
<path fill="none" stroke="#c0c0c0" stroke-width="2" d="M1008.9692,-231.1081C975.3096,-220.6597 926.9823,-205.6581 886.4441,-193.0743"/>
<polygon fill="#c0c0c0" stroke="#c0c0c0" stroke-width="2" points="887.4443,-189.7201 876.8562,-190.0981 885.369,-196.4054 887.4443,-189.7201"/>
</g>
<!-- 16&#45;&gt;15 -->
<g id="edge30" class="edge">
<title>16&#45;&gt;15</title>
<path fill="none" stroke="#c0c0c0" stroke-width="2" d="M1030.408,-225.9656C1019.8831,-216.5186 1006.8285,-204.8009 995.3441,-194.4926"/>
<polygon fill="#c0c0c0" stroke="#c0c0c0" stroke-width="2" points="997.4744,-191.7016 987.6946,-187.6265 992.7986,-196.9109 997.4744,-191.7016"/>
</g>
<!-- 17 -->
<g id="node18" class="node">
<title>17</title>
<path fill="none" stroke="#78d856" stroke-width="2" stroke-dasharray="5,2" d="M484.5,-262C484.5,-262 404.5,-262 404.5,-262 398.5,-262 392.5,-256 392.5,-250 392.5,-250 392.5,-238 392.5,-238 392.5,-232 398.5,-226 404.5,-226 404.5,-226 484.5,-226 484.5,-226 490.5,-226 496.5,-232 496.5,-238 496.5,-238 496.5,-250 496.5,-250 496.5,-256 490.5,-262 484.5,-262"/>
<text text-anchor="middle" x="444.5" y="-241.5" font-family="sans" font-size="10.00" fill="#000000">download_scidata</text>
</g>
<!-- 17&#45;&gt;5 -->
<g id="edge18" class="edge">
<title>17&#45;&gt;5</title>
<path fill="none" stroke="#c0c0c0" stroke-width="2" d="M458.7823,-225.9656C465.9761,-216.8819 474.8324,-205.6989 482.7605,-195.6881"/>
<polygon fill="#c0c0c0" stroke="#c0c0c0" stroke-width="2" points="485.6802,-197.6389 489.1448,-187.6265 480.1926,-193.293 485.6802,-197.6389"/>
</g>
<!-- 17&#45;&gt;6 -->
<g id="edge20" class="edge">
<title>17&#45;&gt;6</title>
<path fill="none" stroke="#c0c0c0" stroke-width="2" d="M429.9757,-225.9656C422.6599,-216.8819 413.6534,-205.6989 405.591,-195.6881"/>
<polygon fill="#c0c0c0" stroke="#c0c0c0" stroke-width="2" points="408.0969,-193.2194 399.0985,-187.6265 402.6451,-197.6101 408.0969,-193.2194"/>
</g>
</g>
</svg>
