<?xml version="1.0" encoding="UTF-8" standalone="no"?>
<!DOCTYPE svg PUBLIC "-//W3C//DTD SVG 1.1//EN"
 "http://www.w3.org/Graphics/SVG/1.1/DTD/svg11.dtd">
<!-- Generated by graphviz version 2.40.1 (20161225.0304)
 -->
<!-- Title: snakemake_dag Pages: 1 -->
<svg width="190pt" height="116pt"
 viewBox="0.00 0.00 189.50 116.00" xmlns="http://www.w3.org/2000/svg" xmlns:xlink="http://www.w3.org/1999/xlink">
<g id="graph0" class="graph" transform="scale(1 1) rotate(0) translate(4 112)">
<title>snakemake_dag</title>
<polygon fill="#ffffff" stroke="transparent" points="-4,4 -4,-112 185.5,-112 185.5,4 -4,4"/>
<!-- 0 -->
<g id="node1" class="node">
<title>0</title>
<path fill="none" stroke="#56d8d8" stroke-width="2" stroke-dasharray="5,2" d="M142,-36C142,-36 50,-36 50,-36 44,-36 38,-30 38,-24 38,-24 38,-12 38,-12 38,-6 44,0 50,0 50,0 142,0 142,0 148,0 154,-6 154,-12 154,-12 154,-24 154,-24 154,-30 148,-36 142,-36"/>
<text text-anchor="middle" x="96" y="-15.5" font-family="sans" font-size="10.00" fill="#000000">compile_manuscript</text>
</g>
<!-- 1 -->
<g id="node2" class="node">
<title>1</title>
<path fill="none" stroke="#59d856" stroke-width="2" stroke-dasharray="5,2" d="M80,-108C80,-108 12,-108 12,-108 6,-108 0,-102 0,-96 0,-96 0,-84 0,-84 0,-78 6,-72 12,-72 12,-72 80,-72 80,-72 86,-72 92,-78 92,-84 92,-84 92,-96 92,-96 92,-102 86,-108 80,-108"/>
<text text-anchor="middle" x="46" y="-87.5" font-family="sans" font-size="10.00" fill="#000000">generate_cover</text>
</g>
<!-- 1&#45;&gt;0 -->
<g id="edge1" class="edge">
<title>1&#45;&gt;0</title>
<path fill="none" stroke="#c0c0c0" stroke-width="2" d="M58.6171,-71.8314C64.3172,-63.6232 71.1663,-53.7606 77.4359,-44.7323"/>
<polygon fill="#c0c0c0" stroke="#c0c0c0" stroke-width="2" points="80.3838,-46.6234 83.213,-36.4133 74.6342,-42.6306 80.3838,-46.6234"/>
</g>
<!-- 2 -->
<g id="node3" class="node">
<title>2</title>
<path fill="none" stroke="#d85656" stroke-width="2" stroke-dasharray="5,2" d="M169.5,-108C169.5,-108 122.5,-108 122.5,-108 116.5,-108 110.5,-102 110.5,-96 110.5,-96 110.5,-84 110.5,-84 110.5,-78 116.5,-72 122.5,-72 122.5,-72 169.5,-72 169.5,-72 175.5,-72 181.5,-78 181.5,-84 181.5,-84 181.5,-96 181.5,-96 181.5,-102 175.5,-108 169.5,-108"/>
<text text-anchor="middle" x="146" y="-87.5" font-family="sans" font-size="10.00" fill="#000000">get_figures</text>
</g>
<!-- 2&#45;&gt;0 -->
<g id="edge2" class="edge">
<title>2&#45;&gt;0</title>
<path fill="none" stroke="#c0c0c0" stroke-width="2" d="M133.3829,-71.8314C127.6828,-63.6232 120.8337,-53.7606 114.5641,-44.7323"/>
<polygon fill="#c0c0c0" stroke="#c0c0c0" stroke-width="2" points="117.3658,-42.6306 108.787,-36.4133 111.6162,-46.6234 117.3658,-42.6306"/>
</g>
</g>
</svg>
