<?xml version="1.0" encoding="UTF-8" standalone="no"?>
<!DOCTYPE svg PUBLIC "-//W3C//DTD SVG 1.1//EN"
 "http://www.w3.org/Graphics/SVG/1.1/DTD/svg11.dtd">
<!-- Generated by graphviz version 2.40.1 (20161225.0304)
 -->
<!-- Title: snakemake\_dag Pages: 1 -->
<svg width="202pt" height="193pt"
 viewBox="0.00 0.00 202.00 193.00" xmlns="http://www.w3.org/2000/svg" xmlns:xlink="http://www.w3.org/1999/xlink">
<g id="graph0" class="graph" transform="scale(1 1) rotate(0) translate(4 189)">
<title>snakemake\_dag</title>
<polygon fill="#ffffff" stroke="transparent" points="-4,4 -4,-189 198,-189 198,4 -4,4"/>
<!-- 0 -->
<g id="node1" class="node">
<title>0</title>
<path fill="none" stroke="#d85656" stroke-width="2" d="M112,-36C112,-36 82,-36 82,-36 76,-36 70,-30 70,-24 70,-24 70,-12 70,-12 70,-6 76,0 82,0 82,0 112,0 112,0 118,0 124,-6 124,-12 124,-12 124,-24 124,-24 124,-30 118,-36 112,-36"/>
<text text-anchor="middle" x="97" y="-15.5" font-family="sans" font-size="10.00" fill="#000000">all</text>
</g>
<!-- 1 -->
<g id="node2" class="node">
<title>1</title>
<path fill="none" stroke="#afd856" stroke-width="2" d="M76,-113C76,-113 12,-113 12,-113 6,-113 0,-107 0,-101 0,-101 0,-84 0,-84 0,-78 6,-72 12,-72 12,-72 76,-72 76,-72 82,-72 88,-78 88,-84 88,-84 88,-101 88,-101 88,-107 82,-113 76,-113"/>
<text text-anchor="middle" x="44" y="-101" font-family="sans" font-size="10.00" fill="#000000">plot\_data</text>
<text text-anchor="middle" x="44" y="-90" font-family="sans" font-size="10.00" fill="#000000">ext: svg</text>
<text text-anchor="middle" x="44" y="-79" font-family="sans" font-size="10.00" fill="#000000">filename: data</text>
</g>
<!-- 1&#45;&gt;0 -->
<g id="edge1" class="edge">
<title>1&#45;&gt;0</title>
<path fill="none" stroke="#c0c0c0" stroke-width="2" d="M58.7635,-71.7476C64.7984,-63.2645 71.8511,-53.3509 78.2444,-44.364"/>
<polygon fill="#c0c0c0" stroke="#c0c0c0" stroke-width="2" points="81.1724,-46.286 84.1173,-36.1087 75.4685,-42.2282 81.1724,-46.286"/>
</g>
<!-- 2 -->
<g id="node3" class="node">
<title>2</title>
<path fill="none" stroke="#afd856" stroke-width="2" d="M182,-113C182,-113 118,-113 118,-113 112,-113 106,-107 106,-101 106,-101 106,-84 106,-84 106,-78 112,-72 118,-72 118,-72 182,-72 182,-72 188,-72 194,-78 194,-84 194,-84 194,-101 194,-101 194,-107 188,-113 182,-113"/>
<text text-anchor="middle" x="150" y="-101" font-family="sans" font-size="10.00" fill="#000000">plot\_data</text>
<text text-anchor="middle" x="150" y="-90" font-family="sans" font-size="10.00" fill="#000000">ext: png</text>
<text text-anchor="middle" x="150" y="-79" font-family="sans" font-size="10.00" fill="#000000">filename: data</text>
</g>
<!-- 2&#45;&gt;0 -->
<g id="edge2" class="edge">
<title>2&#45;&gt;0</title>
<path fill="none" stroke="#c0c0c0" stroke-width="2" d="M135.2365,-71.7476C129.2016,-63.2645 122.1489,-53.3509 115.7556,-44.364"/>
<polygon fill="#c0c0c0" stroke="#c0c0c0" stroke-width="2" points="118.5315,-42.2282 109.8827,-36.1087 112.8276,-46.286 118.5315,-42.2282"/>
</g>
<!-- 3 -->
<g id="node4" class="node">
<title>3</title>
<path fill="none" stroke="#56d8a9" stroke-width="2" d="M125,-185C125,-185 69,-185 69,-185 63,-185 57,-179 57,-173 57,-173 57,-161 57,-161 57,-155 63,-149 69,-149 69,-149 125,-149 125,-149 131,-149 137,-155 137,-161 137,-161 137,-173 137,-173 137,-179 131,-185 125,-185"/>
<text text-anchor="middle" x="97" y="-170" font-family="sans" font-size="10.00" fill="#000000">create\_data</text>
<text text-anchor="middle" x="97" y="-159" font-family="sans" font-size="10.00" fill="#000000">data\_ext: nix</text>
</g>
<!-- 3&#45;&gt;1 -->
<g id="edge3" class="edge">
<title>3&#45;&gt;1</title>
<path fill="none" stroke="#c0c0c0" stroke-width="2" d="M84.1702,-148.9656C78.3063,-140.723 71.2127,-130.7518 64.6283,-121.4964"/>
<polygon fill="#c0c0c0" stroke="#c0c0c0" stroke-width="2" points="67.4233,-119.3874 58.7745,-113.2679 61.7194,-123.4452 67.4233,-119.3874"/>
</g>
<!-- 3&#45;&gt;2 -->
<g id="edge4" class="edge">
<title>3&#45;&gt;2</title>
<path fill="none" stroke="#c0c0c0" stroke-width="2" d="M109.8298,-148.9656C115.6937,-140.723 122.7873,-130.7518 129.3717,-121.4964"/>
<polygon fill="#c0c0c0" stroke="#c0c0c0" stroke-width="2" points="132.2806,-123.4452 135.2255,-113.2679 126.5767,-119.3874 132.2806,-123.4452"/>
</g>
</g>
</svg>
