<?xml version="1.0" encoding="UTF-8" standalone="no"?>
<!-- Generated by graphviz version 2.38.0 (20140413.2041)
 -->

<!-- Title: snakemake_dag Pages: 1 -->

<svg
   xmlns:dc="http://purl.org/dc/elements/1.1/"
   xmlns:cc="http://creativecommons.org/ns#"
   xmlns:rdf="http://www.w3.org/1999/02/22-rdf-syntax-ns#"
   xmlns:svg="http://www.w3.org/2000/svg"
   xmlns="http://www.w3.org/2000/svg"
   xmlns:sodipodi="http://sodipodi.sourceforge.net/DTD/sodipodi-0.dtd"
   xmlns:inkscape="http://www.inkscape.org/namespaces/inkscape"
   width="524pt"
   height="620pt"
   viewBox="0.00 0.00 524.00 620.00"
   version="1.1"
   id="svg301"
   sodipodi:docname="rulegraph_colored_escus.svg"
   inkscape:version="0.92.4 (f8dce91, 2019-08-02)">
  <metadata
     id="metadata307">
    <rdf:RDF>
      <cc:Work
         rdf:about="">
        <dc:format>image/svg+xml</dc:format>
        <dc:type
           rdf:resource="http://purl.org/dc/dcmitype/StillImage" />
        <dc:title />
      </cc:Work>
    </rdf:RDF>
  </metadata>
  <defs
     id="defs305" />
  <sodipodi:namedview
     pagecolor="#ffffff"
     bordercolor="#666666"
     borderopacity="1"
     objecttolerance="10"
     gridtolerance="10"
     guidetolerance="10"
     inkscape:pageopacity="0"
     inkscape:pageshadow="2"
     inkscape:window-width="1920"
     inkscape:window-height="1025"
     id="namedview303"
     showgrid="false"
     inkscape:zoom="0.90028971"
     inkscape:cx="-193.27889"
     inkscape:cy="419.93637"
     inkscape:window-x="0"
     inkscape:window-y="27"
     inkscape:window-maximized="1"
     inkscape:current-layer="node16-3-0-0" />
  <g
     id="graph0"
     class="graph"
     transform="scale(1 1) rotate(0) translate(4 616)">
    <title
       id="title2">snakemake_dag</title>
    <polygon
       fill="white"
       stroke="none"
       points="-4,4 -4,-616 520,-616 520,4 -4,4"
       id="polygon4" />
    <!-- 0 -->
    <g
       id="node1"
       class="node"
       style="stroke:#ffb341;stroke-opacity:1">
      <title
         id="title6">0</title>
      <path
         fill="none"
         stroke="#d85656"
         stroke-width="2"
         d="M355.5,-36C355.5,-36 296.5,-36 296.5,-36 290.5,-36 284.5,-30 284.5,-24 284.5,-24 284.5,-12 284.5,-12 284.5,-6 290.5,-0 296.5,-0 296.5,-0 355.5,-0 355.5,-0 361.5,-0 367.5,-6 367.5,-12 367.5,-12 367.5,-24 367.5,-24 367.5,-30 361.5,-36 355.5,-36"
         id="path8"
         style="stroke:#ffb341;stroke-opacity:1" />
      <text
         x="326"
         y="-15.5"
         font-size="10.00"
         id="text10"
         style="font-size:10px;font-family:sans;text-anchor:middle;stroke:#ffb341;stroke-opacity:1">upload\_to\_gin</text>
    </g>
    <!-- 1 -->
    <g
       id="node2"
       class="node"
       style="stroke:#ab41ff;stroke-opacity:1">
      <title
         id="title13">1</title>
      <path
         fill="none"
         stroke="#d8d356"
         stroke-width="2"
         d="M504,-108C504,-108 450,-108 450,-108 444,-108 438,-102 438,-96 438,-96 438,-84 438,-84 438,-78 444,-72 450,-72 450,-72 504,-72 504,-72 510,-72 516,-78 516,-84 516,-84 516,-96 516,-96 516,-102 510,-108 504,-108"
         id="path15"
         style="stroke:#ab41ff;stroke-opacity:1" />
      <text
         x="477"
         y="-87.5"
         font-size="10.00"
         id="text17"
         style="font-size:10px;font-family:sans;text-anchor:middle;stroke:#ab41ff;stroke-opacity:1">create\_small</text>
    </g>
    <!-- 1&#45;&gt;0 -->
    <g
       id="edge1"
       class="edge">
      <title
         id="title20">1-&gt;0</title>
      <path
         fill="none"
         stroke="grey"
         stroke-width="2"
         d="M440.061,-71.8761C419.51,-62.3492 393.749,-50.4068 371.911,-40.2833"
         id="path22" />
      <polygon
         fill="grey"
         stroke="grey"
         stroke-width="2"
         points="373.363,-37.0988 362.819,-36.0683 370.419,-43.4496 373.363,-37.0988"
         id="polygon24" />
    </g>
    <!-- 2 -->
    <g
       id="node3"
       class="node"
       style="stroke:#ffb341;stroke-opacity:1">
      <title
         id="title27">2</title>
      <path
         fill="none"
         stroke="#61d856"
         stroke-width="2"
         d="M248,-108C248,-108 190,-108 190,-108 184,-108 178,-102 178,-96 178,-96 178,-84 178,-84 178,-78 184,-72 190,-72 190,-72 248,-72 248,-72 254,-72 260,-78 260,-84 260,-84 260,-96 260,-96 260,-102 254,-108 248,-108"
         id="path29"
         style="stroke:#ffb341;stroke-opacity:1" />
      <text
         x="219"
         y="-87.5"
         font-size="10.00"
         id="text31"
         style="font-size:10px;font-family:sans;text-anchor:middle;stroke:#ffb341;stroke-opacity:1">initialize\_repo</text>
    </g>
    <!-- 2&#45;&gt;0 -->
    <g
       id="edge3"
       class="edge">
      <title
         id="title34">2-&gt;0</title>
      <path
         fill="none"
         stroke="grey"
         stroke-width="2"
         d="M245.175,-71.8761C259.036,-62.8083 276.241,-51.5523 291.211,-41.7592"
         id="path36" />
      <polygon
         fill="grey"
         stroke="grey"
         stroke-width="2"
         points="293.272,-44.5933 299.724,-36.1898 289.44,-38.7355 293.272,-44.5933"
         id="polygon38" />
    </g>
    <!-- 3 -->
    <g
       id="node4"
       class="node"
       style="stroke:#ffb341;stroke-opacity:1">
      <title
         id="title41">3</title>
      <path
         fill="none"
         stroke="#5673d8"
         stroke-width="2"
         d="M262.5,-180C262.5,-180 223.5,-180 223.5,-180 217.5,-180 211.5,-174 211.5,-168 211.5,-168 211.5,-156 211.5,-156 211.5,-150 217.5,-144 223.5,-144 223.5,-144 262.5,-144 262.5,-144 268.5,-144 274.5,-150 274.5,-156 274.5,-156 274.5,-168 274.5,-168 274.5,-174 268.5,-180 262.5,-180"
         id="path43"
         style="stroke:#ffb341;stroke-opacity:1" />
      <text
         x="243"
         y="-159.5"
         font-size="10.00"
         id="text45"
         style="font-size:10px;font-family:sans;text-anchor:middle;stroke:#ffb341;stroke-opacity:1">setup\_gin</text>
    </g>
    <!-- 3&#45;&gt;0 -->
    <g
       id="edge2"
       class="edge">
      <title
         id="title48">3-&gt;0</title>
      <path
         fill="none"
         stroke="grey"
         stroke-width="2"
         d="M253.012,-143.871C267.407,-119.244 294.064,-73.6377 310.87,-44.8845"
         id="path50" />
      <polygon
         fill="grey"
         stroke="grey"
         stroke-width="2"
         points="313.928,-46.5889 315.953,-36.1893 307.885,-43.0564 313.928,-46.5889"
         id="polygon52" />
    </g>
    <!-- 3&#45;&gt;2 -->
    <g
       id="edge8"
       class="edge">
      <title
         id="title55">3-&gt;2</title>
      <path
         fill="none"
         stroke="grey"
         stroke-width="2"
         d="M237.067,-143.697C234.394,-135.898 231.174,-126.509 228.199,-117.829"
         id="path57" />
      <polygon
         fill="grey"
         stroke="grey"
         stroke-width="2"
         points="231.418,-116.429 224.864,-108.104 224.797,-118.699 231.418,-116.429"
         id="polygon59" />
    </g>
    <!-- 4 -->
    <g
       id="node5"
       class="node"
       style="stroke:#ab41ff;stroke-opacity:1">
      <title
         id="title62">4</title>
      <path
         fill="none"
         stroke="#56d87b"
         stroke-width="2"
         d="M408,-108C408,-108 366,-108 366,-108 360,-108 354,-102 354,-96 354,-96 354,-84 354,-84 354,-78 360,-72 366,-72 366,-72 408,-72 408,-72 414,-72 420,-78 420,-84 420,-84 420,-96 420,-96 420,-102 414,-108 408,-108"
         id="path64"
         style="stroke:#ab41ff;stroke-opacity:1" />
      <text
         x="387"
         y="-87.5"
         font-size="10.00"
         id="text66"
         style="font-size:10px;font-family:sans;text-anchor:middle;stroke:#ab41ff;stroke-opacity:1">create\_full</text>
    </g>
    <!-- 4&#45;&gt;0 -->
    <g
       id="edge5"
       class="edge">
      <title
         id="title69">4-&gt;0</title>
      <path
         fill="none"
         stroke="grey"
         stroke-width="2"
         d="M371.921,-71.6966C364.608,-63.3046 355.69,-53.0705 347.665,-43.8613"
         id="path71" />
      <polygon
         fill="grey"
         stroke="grey"
         stroke-width="2"
         points="350.114,-41.344 340.905,-36.1043 344.836,-45.9429 350.114,-41.344"
         id="polygon73" />
    </g>
    <!-- 5 -->
    <g
       id="node6"
       class="node"
       style="stroke:#5d6fff;stroke-opacity:1">
      <title
         id="title76">5</title>
      <path
         fill="none"
         stroke="#97d856"
         stroke-width="2"
         d="M415.5,-324C415.5,-324 236.5,-324 236.5,-324 230.5,-324 224.5,-318 224.5,-312 224.5,-312 224.5,-300 224.5,-300 224.5,-294 230.5,-288 236.5,-288 236.5,-288 415.5,-288 415.5,-288 421.5,-288 427.5,-294 427.5,-300 427.5,-300 427.5,-312 427.5,-312 427.5,-318 421.5,-324 415.5,-324"
         id="path78"
         style="stroke:#5d6fff;stroke-opacity:1" />
      <text
         x="326"
         y="-303.5"
         font-size="10.00"
         id="text80"
         style="font-size:10px;font-family:sans;text-anchor:middle;stroke:#5d6fff;stroke-opacity:1">integrate\_descriptors\_and\_app\_results</text>
    </g>
    <!-- 5&#45;&gt;0 -->
    <g
       id="edge4"
       class="edge">
      <title
         id="title83">5-&gt;0</title>
      <path
         fill="none"
         stroke="grey"
         stroke-width="2"
         d="M326,-287.966C326,-240.291 326,-105.185 326,-46.63"
         id="path85" />
      <polygon
         fill="grey"
         stroke="grey"
         stroke-width="2"
         points="329.5,-46.3064 326,-36.3065 322.5,-46.3065 329.5,-46.3064"
         id="polygon87" />
    </g>
    <!-- 6 -->
    <g
       id="node7"
       class="node"
       style="stroke:#ab41ff;stroke-opacity:1">
      <title
         id="title90">6</title>
      <path
         fill="none"
         stroke="#56d8c9"
         stroke-width="2"
         d="M490.5,-252C490.5,-252 401.5,-252 401.5,-252 395.5,-252 389.5,-246 389.5,-240 389.5,-240 389.5,-228 389.5,-228 389.5,-222 395.5,-216 401.5,-216 401.5,-216 490.5,-216 490.5,-216 496.5,-216 502.5,-222 502.5,-228 502.5,-228 502.5,-240 502.5,-240 502.5,-246 496.5,-252 490.5,-252"
         id="path92"
         style="stroke:#ab41ff;stroke-opacity:1" />
      <text
         x="446"
         y="-231.5"
         font-size="10.00"
         id="text94"
         style="font-size:10px;font-family:sans;text-anchor:middle;stroke:#ab41ff;stroke-opacity:1">integrate\_metadata</text>
    </g>
    <!-- 5&#45;&gt;6 -->
    <g
       id="edge13"
       class="edge">
      <title
         id="title97">5-&gt;6</title>
      <path
         fill="none"
         stroke="grey"
         stroke-width="2"
         d="M355.355,-287.876C371.045,-278.724 390.557,-267.342 407.454,-257.485"
         id="path99" />
      <polygon
         fill="grey"
         stroke="grey"
         stroke-width="2"
         points="409.658,-260.252 416.532,-252.19 406.13,-254.205 409.658,-260.252"
         id="polygon101" />
    </g>
    <!-- 6&#45;&gt;1 -->
    <g
       id="edge7"
       class="edge">
      <title
         id="title104">6-&gt;1</title>
      <path
         fill="none"
         stroke="grey"
         stroke-width="2"
         d="M469.305,-215.819C479.901,-206.538 491.32,-194.094 497,-180 505.141,-159.798 498.763,-135.616 491.116,-117.56"
         id="path106" />
      <polygon
         fill="grey"
         stroke="grey"
         stroke-width="2"
         points="494.18,-115.846 486.821,-108.224 487.82,-118.771 494.18,-115.846"
         id="polygon108" />
    </g>
    <!-- 6&#45;&gt;4 -->
    <g
       id="edge10"
       class="edge">
      <title
         id="title111">6-&gt;4</title>
      <path
         fill="none"
         stroke="grey"
         stroke-width="2"
         d="M422.992,-215.939C412.235,-206.604 400.409,-194.079 394,-180 385.197,-160.661 383.815,-136.511 384.43,-118.249"
         id="path113" />
      <polygon
         fill="grey"
         stroke="grey"
         stroke-width="2"
         points="387.925,-118.436 384.982,-108.258 380.936,-118.05 387.925,-118.436"
         id="polygon115" />
    </g>
    <!-- 7 -->
    <g
       id="node8"
       class="node"
       style="stroke:#ab41ff;stroke-opacity:1">
      <title
         id="title118">7</title>
      <path
         fill="none"
         stroke="#d8bc56"
         stroke-width="2"
         d="M476.5,-180C476.5,-180 415.5,-180 415.5,-180 409.5,-180 403.5,-174 403.5,-168 403.5,-168 403.5,-156 403.5,-156 403.5,-150 409.5,-144 415.5,-144 415.5,-144 476.5,-144 476.5,-144 482.5,-144 488.5,-150 488.5,-156 488.5,-156 488.5,-168 488.5,-168 488.5,-174 482.5,-180 476.5,-180"
         id="path120"
         style="stroke:#ab41ff;stroke-opacity:1" />
      <text
         x="446"
         y="-159.5"
         font-size="10.00"
         id="text122"
         style="font-size:10px;font-family:sans;text-anchor:middle;stroke:#ab41ff;stroke-opacity:1">link\_metadata</text>
    </g>
    <!-- 6&#45;&gt;7 -->
    <g
       id="edge15"
       class="edge">
      <title
         id="title125">6-&gt;7</title>
      <path
         fill="none"
         stroke="grey"
         stroke-width="2"
         d="M446,-215.697C446,-207.983 446,-198.712 446,-190.112"
         id="path127" />
      <polygon
         fill="grey"
         stroke="grey"
         stroke-width="2"
         points="449.5,-190.104 446,-180.104 442.5,-190.104 449.5,-190.104"
         id="polygon129" />
    </g>
    <!-- 7&#45;&gt;1 -->
    <g
       id="edge6"
       class="edge">
      <title
         id="title132">7-&gt;1</title>
      <path
         fill="none"
         stroke="grey"
         stroke-width="2"
         d="M453.663,-143.697C457.192,-135.728 461.456,-126.1 465.369,-117.264"
         id="path134" />
      <polygon
         fill="grey"
         stroke="grey"
         stroke-width="2"
         points="468.576,-118.665 469.425,-108.104 462.176,-115.831 468.576,-118.665"
         id="polygon136" />
    </g>
    <!-- 7&#45;&gt;4 -->
    <g
       id="edge9"
       class="edge">
      <title
         id="title139">7-&gt;4</title>
      <path
         fill="none"
         stroke="grey"
         stroke-width="2"
         d="M431.416,-143.697C424.342,-135.305 415.717,-125.07 407.955,-115.861"
         id="path141" />
      <polygon
         fill="grey"
         stroke="grey"
         stroke-width="2"
         points="410.537,-113.495 401.417,-108.104 405.185,-118.006 410.537,-113.495"
         id="polygon143" />
    </g>
    <!-- 8 -->
    <g
       id="node9"
       class="node"
       style="stroke:#5d6fff;stroke-opacity:1">
      <title
         id="title146">8</title>
      <path
         fill="none"
         stroke="#56d8a9"
         stroke-width="2"
         d="M236.5,-396C236.5,-396 139.5,-396 139.5,-396 133.5,-396 127.5,-390 127.5,-384 127.5,-384 127.5,-372 127.5,-372 127.5,-366 133.5,-360 139.5,-360 139.5,-360 236.5,-360 236.5,-360 242.5,-360 248.5,-366 248.5,-372 248.5,-372 248.5,-384 248.5,-384 248.5,-390 242.5,-396 236.5,-396"
         id="path148"
         style="stroke:#5d6fff;stroke-opacity:1" />
      <text
         x="188"
         y="-375.5"
         font-size="10.00"
         id="text150"
         style="font-size:10px;font-family:sans;text-anchor:middle;stroke:#5d6fff;stroke-opacity:1">integrate\_app\_results</text>
    </g>
    <!-- 8&#45;&gt;5 -->
    <g
       id="edge11"
       class="edge">
      <title
         id="title153">8-&gt;5</title>
      <path
         fill="none"
         stroke="grey"
         stroke-width="2"
         d="M221.759,-359.876C240.22,-350.512 263.282,-338.814 283.017,-328.803"
         id="path155" />
      <polygon
         fill="grey"
         stroke="grey"
         stroke-width="2"
         points="284.777,-331.835 292.112,-324.19 281.61,-325.592 284.777,-331.835"
         id="polygon157" />
    </g>
    <!-- 9 -->
    <g
       id="node10"
       class="node"
       style="stroke:#5d6fff;stroke-opacity:1">
      <title
         id="title160">9</title>
      <path
         fill="none"
         stroke="#56b9d8"
         stroke-width="2"
         d="M373.5,-396C373.5,-396 278.5,-396 278.5,-396 272.5,-396 266.5,-390 266.5,-384 266.5,-384 266.5,-372 266.5,-372 266.5,-366 272.5,-360 278.5,-360 278.5,-360 373.5,-360 373.5,-360 379.5,-360 385.5,-366 385.5,-372 385.5,-372 385.5,-384 385.5,-384 385.5,-390 379.5,-396 373.5,-396"
         id="path162"
         style="stroke:#5d6fff;stroke-opacity:1" />
      <text
         x="326"
         y="-375.5"
         font-size="10.00"
         id="text164"
         style="font-size:10px;font-family:sans;text-anchor:middle;stroke:#5d6fff;stroke-opacity:1">integrate\_descriptors</text>
    </g>
    <!-- 9&#45;&gt;5 -->
    <g
       id="edge12"
       class="edge">
      <title
         id="title167">9-&gt;5</title>
      <path
         fill="none"
         stroke="grey"
         stroke-width="2"
         d="M326,-359.697C326,-351.983 326,-342.712 326,-334.112"
         id="path169" />
      <polygon
         fill="grey"
         stroke="grey"
         stroke-width="2"
         points="329.5,-334.104 326,-324.104 322.5,-334.104 329.5,-334.104"
         id="polygon171" />
    </g>
    <!-- 10 -->
    <g
       id="node11"
       class="node"
       style="stroke:#ab41ff;stroke-opacity:1;stroke-width:0.99974997;stroke-miterlimit:4;stroke-dasharray:none;stroke-linejoin:round">
      <title
         id="title174">10</title>
      <path
         fill="none"
         stroke="#d86e56"
         stroke-width="2"
         d="M357,-612C357,-612 309,-612 309,-612 303,-612 297,-606 297,-600 297,-600 297,-588 297,-588 297,-582 303,-576 309,-576 309,-576 357,-576 357,-576 363,-576 369,-582 369,-588 369,-588 369,-600 369,-600 369,-606 363,-612 357,-612"
         id="path176"
         style="stroke:#ab41ff;stroke-opacity:1;stroke-width:0.99974997;stroke-miterlimit:4;stroke-dasharray:none;stroke-linejoin:round" />
      <text
         x="333"
         y="-591.5"
         font-size="10.00"
         id="text178"
         style="font-size:10px;font-family:sans;text-anchor:middle;stroke:#ab41ff;stroke-width:0.99974996;stroke-linejoin:round;stroke-miterlimit:4;stroke-dasharray:none;stroke-opacity:1">data\_to\_nix</text>
    </g>
    <!-- 10&#45;&gt;6 -->
    <g
       id="edge14"
       class="edge">
      <title
         id="title181">10-&gt;6</title>
      <path
         fill="none"
         stroke="grey"
         stroke-width="2"
         d="M369.141,-589.487C402.293,-584.306 450.319,-571.516 478,-540 504.754,-509.539 498,-491.542 498,-451 498,-451 498,-451 498,-377 498,-334.492 477.2,-288.953 461.91,-261.219"
         id="path183" />
      <polygon
         fill="grey"
         stroke="grey"
         stroke-width="2"
         points="464.759,-259.15 456.774,-252.187 458.674,-262.61 464.759,-259.15"
         id="polygon185" />
    </g>
    <!-- 14 -->
    <g
       id="node15"
       class="node"
       style="stroke:#009843;stroke-opacity:1">
      <title
         id="title188">14</title>
      <path
         fill="none"
         stroke="#56d863"
         stroke-width="2"
         d="M197.5,-540C197.5,-540 138.5,-540 138.5,-540 132.5,-540 126.5,-534 126.5,-528 126.5,-528 126.5,-516 126.5,-516 126.5,-510 132.5,-504 138.5,-504 138.5,-504 197.5,-504 197.5,-504 203.5,-504 209.5,-510 209.5,-516 209.5,-516 209.5,-528 209.5,-528 209.5,-534 203.5,-540 197.5,-540"
         id="path190"
         style="stroke:#009843;stroke-opacity:1" />
      <text
         x="168"
         y="-519.5"
         font-size="10.00"
         id="text192"
         style="font-size:10px;font-family:sans;text-anchor:middle;stroke:#009843;stroke-opacity:1">run\_data\_app</text>
    </g>
    <!-- 10&#45;&gt;14 -->
    <g
       id="edge25"
       class="edge">
      <title
         id="title195">10-&gt;14</title>
      <path
         fill="none"
         stroke="grey"
         stroke-width="2"
         d="M296.79,-577.638C273.574,-567.789 243.126,-554.872 217.664,-544.07"
         id="path197" />
      <polygon
         fill="grey"
         stroke="grey"
         stroke-width="2"
         points="218.748,-540.728 208.176,-540.044 216.014,-547.172 218.748,-540.728"
         id="polygon199" />
    </g>
    <!-- 11 -->
    <g
       id="node12"
       class="node"
       style="stroke:#5d6fff;stroke-opacity:1">
      <title
         id="title202">11</title>
      <path
         fill="none"
         stroke="#56d892"
         stroke-width="2"
         d="M303.5,-468C303.5,-468 250.5,-468 250.5,-468 244.5,-468 238.5,-462 238.5,-456 238.5,-456 238.5,-444 238.5,-444 238.5,-438 244.5,-432 250.5,-432 250.5,-432 303.5,-432 303.5,-432 309.5,-432 315.5,-438 315.5,-444 315.5,-444 315.5,-456 315.5,-456 315.5,-462 309.5,-468 303.5,-468"
         id="path204"
         style="stroke:#5d6fff;stroke-opacity:1" />
      <text
         x="277"
         y="-447.5"
         font-size="10.00"
         id="text206"
         style="font-size:10px;font-family:sans;text-anchor:middle;stroke:#5d6fff;stroke-opacity:1">csv\_to\_odml</text>
    </g>
    <!-- 11&#45;&gt;8 -->
    <g
       id="edge17"
       class="edge">
      <title
         id="title209">11-&gt;8</title>
      <path
         fill="none"
         stroke="grey"
         stroke-width="2"
         d="M255,-431.697C243.791,-422.881 229.998,-412.032 217.846,-402.474"
         id="path211" />
      <polygon
         fill="grey"
         stroke="grey"
         stroke-width="2"
         points="219.771,-399.535 209.747,-396.104 215.443,-405.038 219.771,-399.535"
         id="polygon213" />
    </g>
    <!-- 11&#45;&gt;9 -->
    <g
       id="edge18"
       class="edge">
      <title
         id="title216">11-&gt;9</title>
      <path
         fill="none"
         stroke="grey"
         stroke-width="2"
         d="M289.112,-431.697C294.868,-423.474 301.862,-413.483 308.206,-404.421"
         id="path218" />
      <polygon
         fill="grey"
         stroke="grey"
         stroke-width="2"
         points="311.16,-406.304 314.027,-396.104 305.425,-402.29 311.16,-406.304"
         id="polygon220" />
    </g>
    <!-- 12 -->
    <g
       id="node13"
       class="node"
       style="stroke:#4d505a;stroke-opacity:1">
      <title
         id="title223">12</title>
      <path
         fill="none"
         stroke="#568ad8"
         stroke-width="2"
         d="M208.5,-468C208.5,-468 83.5,-468 83.5,-468 77.5,-468 71.5,-462 71.5,-456 71.5,-456 71.5,-444 71.5,-444 71.5,-438 77.5,-432 83.5,-432 83.5,-432 208.5,-432 208.5,-432 214.5,-432 220.5,-438 220.5,-444 220.5,-444 220.5,-456 220.5,-456 220.5,-462 214.5,-468 208.5,-468"
         id="path225"
         style="stroke:#4d505a;stroke-opacity:1" />
      <text
         x="146"
         y="-447.5"
         font-size="10.00"
         id="text227"
         style="font-size:10px;font-family:sans;text-anchor:middle;stroke:#4d505a;stroke-opacity:1">run\_all\_preprocessing\_apps</text>
    </g>
    <!-- 12&#45;&gt;8 -->
    <g
       id="edge16"
       class="edge">
      <title
         id="title230">12-&gt;8</title>
      <path
         fill="none"
         stroke="grey"
         stroke-width="2"
         d="M156.382,-431.697C161.265,-423.559 167.187,-413.689 172.579,-404.701"
         id="path232" />
      <polygon
         fill="grey"
         stroke="grey"
         stroke-width="2"
         points="175.594,-406.48 177.737,-396.104 169.591,-402.879 175.594,-406.48"
         id="polygon234" />
    </g>
    <!-- 13 -->
    <g
       id="node14"
       class="node"
       style="stroke:#5d6fff;stroke-opacity:1">
      <title
         id="title237">13</title>
      <path
         fill="none"
         stroke="#d88556"
         stroke-width="2"
         d="M457.5,-540C457.5,-540 356.5,-540 356.5,-540 350.5,-540 344.5,-534 344.5,-528 344.5,-528 344.5,-516 344.5,-516 344.5,-510 350.5,-504 356.5,-504 356.5,-504 457.5,-504 457.5,-504 463.5,-504 469.5,-510 469.5,-516 469.5,-516 469.5,-528 469.5,-528 469.5,-534 463.5,-540 457.5,-540"
         id="path239"
         style="stroke:#5d6fff;stroke-opacity:1" />
      <text
         x="407"
         y="-519.5"
         font-size="10.00"
         id="text241"
         style="font-size:10px;font-family:sans;text-anchor:middle;stroke:#5d6fff;stroke-opacity:1">add\_odML\_style\_sheet</text>
    </g>
    <!-- 13&#45;&gt;11 -->
    <g
       id="edge19"
       class="edge">
      <title
         id="title244">13-&gt;11</title>
      <path
         fill="none"
         stroke="grey"
         stroke-width="2"
         d="M375.198,-503.876C357.886,-494.554 336.279,-482.919 317.744,-472.939"
         id="path246" />
      <polygon
         fill="grey"
         stroke="grey"
         stroke-width="2"
         points="319.388,-469.849 308.924,-468.19 316.069,-476.012 319.388,-469.849"
         id="polygon248" />
    </g>
    <!-- 14&#45;&gt;11 -->
    <g
       id="edge22"
       class="edge">
      <title
         id="title251">14-&gt;11</title>
      <path
         fill="none"
         stroke="grey"
         stroke-width="2"
         d="M194.664,-503.876C208.784,-494.808 226.311,-483.552 241.561,-473.759"
         id="path253" />
      <polygon
         fill="grey"
         stroke="grey"
         stroke-width="2"
         points="243.71,-476.538 250.233,-468.19 239.927,-470.648 243.71,-476.538"
         id="polygon255" />
    </g>
    <!-- 14&#45;&gt;12 -->
    <g
       id="edge24"
       class="edge">
      <title
         id="title258">14-&gt;12</title>
      <path
         fill="none"
         stroke="grey"
         stroke-width="2"
         d="M162.562,-503.697C160.111,-495.898 157.16,-486.509 154.432,-477.829"
         id="path260" />
      <polygon
         fill="grey"
         stroke="grey"
         stroke-width="2"
         points="157.713,-476.595 151.376,-468.104 151.035,-478.694 157.713,-476.595"
         id="polygon262" />
    </g>
    <!-- 15 -->
    <g
       id="node16"
       class="node"
       style="stroke:#009843;stroke-opacity:1">
      <title
         id="title265">15</title>
      <path
         fill="none"
         stroke="#d8a456"
         stroke-width="2"
         d="M96,-540C96,-540 12,-540 12,-540 6,-540 0,-534 0,-528 0,-528 0,-516 0,-516 0,-510 6,-504 12,-504 12,-504 96,-504 96,-504 102,-504 108,-510 108,-516 108,-516 108,-528 108,-528 108,-534 102,-540 96,-540"
         id="path267"
         style="stroke:#009843;stroke-opacity:1" />
      <text
         x="54"
         y="-519.5"
         font-size="10.00"
         id="text269"
         style="font-size:10px;font-family:sans;text-anchor:middle;stroke:#009843;stroke-opacity:1">run\_metadata\_app</text>
    </g>
    <!-- 15&#45;&gt;11 -->
    <g
       id="edge20"
       class="edge">
      <title
         id="title272">15-&gt;11</title>
      <path
         fill="none"
         stroke="grey"
         stroke-width="2"
         d="M108.205,-505.288C140.64,-495.724 182.87,-482.989 228.748,-468.013"
         id="path274" />
      <polygon
         fill="grey"
         stroke="grey"
         stroke-width="2"
         points="229.869,-471.329 238.28,-464.886 227.687,-464.678 229.869,-471.329"
         id="polygon276" />
    </g>
    <!-- 15&#45;&gt;12 -->
    <g
       id="edge23"
       class="edge">
      <title
         id="title279">15-&gt;12</title>
      <path
         fill="none"
         stroke="grey"
         stroke-width="2"
         d="M76.7416,-503.697C88.4396,-494.796 102.861,-483.823 115.51,-474.199"
         id="path281" />
      <polygon
         fill="grey"
         stroke="grey"
         stroke-width="2"
         points="117.681,-476.945 123.52,-468.104 113.442,-471.374 117.681,-476.945"
         id="polygon283" />
    </g>
    <!-- 16 -->
    <g
       id="node17"
       class="node"
       style="stroke:#5d6fff;stroke-opacity:1">
      <title
         id="title286">16</title>
      <path
         fill="none"
         stroke="#afd856"
         stroke-width="2"
         d="M314,-540C314,-540 240,-540 240,-540 234,-540 228,-534 228,-528 228,-528 228,-516 228,-516 228,-510 234,-504 240,-504 240,-504 314,-504 314,-504 320,-504 326,-510 326,-516 326,-516 326,-528 326,-528 326,-534 320,-540 314,-540"
         id="path288"
         style="stroke:#5d6fff;stroke-opacity:1" />
      <text
         x="277"
         y="-519.5"
         font-size="10.00"
         id="text290"
         style="font-size:10px;font-family:sans;text-anchor:middle;stroke:#5d6fff;stroke-opacity:1">copy\_descriptors</text>
    </g>
    <!-- 16&#45;&gt;11 -->
    <g
       id="edge21"
       class="edge">
      <title
         id="title293">16-&gt;11</title>
      <path
         fill="none"
         stroke="grey"
         stroke-width="2"
         d="M277,-503.697C277,-495.983 277,-486.712 277,-478.112"
         id="path295" />
      <polygon
         fill="grey"
         stroke="grey"
         stroke-width="2"
         points="280.5,-478.104 277,-468.104 273.5,-478.104 280.5,-478.104"
         id="polygon297" />
    </g>
    <g
       transform="translate(0.31455558,362.71922)"
       id="node16-3"
       class="node"
       style="stroke:#5d6fff;stroke-opacity:1">
      <title
         id="title265-6">15</title>
      <path
         inkscape:connector-curvature="0"
         d="m 96,-540 c 0,0 -84,0 -84,0 -6,0 -12,6 -12,12 0,0 0,12 0,12 0,6 6,12 12,12 0,0 84,0 84,0 6,0 12,-6 12,-12 0,0 0,-12 0,-12 0,-6 -6,-12 -12,-12"
         id="path267-7"
         style="fill:none;stroke:#5d6fff;stroke-width:2;stroke-opacity:1" />
      <text
         x="54"
         y="-519.5"
         font-size="10.00"
         id="text269-5"
         style="font-size:10px;font-family:sans;text-anchor:middle;stroke:#5d6fff;stroke-opacity:1">aggregate metadata</text>
    </g>
    <g
       transform="matrix(1.1015779,0,0,1,-250.67745,409.38535)"
       id="node17-3"
       class="node"
       style="stroke:#4d505a;stroke-opacity:1">
      <title
         id="title286-5">16</title>
      <path
         inkscape:connector-curvature="0"
         d="m 314,-540 c 0,0 -74,0 -74,0 -6,0 -12,6 -12,12 0,0 0,12 0,12 0,6 6,12 12,12 0,0 74,0 74,0 6,0 12,-6 12,-12 0,0 0,-12 0,-12 0,-6 -6,-12 -12,-12"
         id="path288-6"
         style="fill:none;stroke:#4d505a;stroke-width:2;stroke-opacity:1" />
      <text
         x="277"
         y="-519.5"
         font-size="10.00"
         id="text290-2"
         style="font-size:10px;font-family:sans;text-anchor:middle;stroke:#4d505a;stroke-opacity:1">utility apps</text>
    </g>
    <g
       transform="matrix(0.95615109,0,0,1,-371.82066,167.88535)"
       id="node7-9"
       class="node"
       style="stroke:#ab41ff;stroke-opacity:1">
      <title
         id="title90-1">6</title>
      <path
         inkscape:connector-curvature="0"
         d="m 490.5,-252 c 0,0 -89,0 -89,0 -6,0 -12,6 -12,12 0,0 0,12 0,12 0,6 6,12 12,12 0,0 89,0 89,0 6,0 12,-6 12,-12 0,0 0,-12 0,-12 0,-6 -6,-12 -12,-12"
         id="path92-2"
         style="fill:none;stroke:#ab41ff;stroke-width:2;stroke-opacity:1" />
      <text
         x="446"
         y="-231.5"
         font-size="10.00"
         id="text94-7"
         style="font-size:10px;font-family:sans;text-anchor:middle;stroke:#ab41ff;stroke-opacity:1">package data</text>
    </g>
    <g
       transform="translate(0.31456558,315.56676)"
       id="node16-3-0"
       class="node"
       style="stroke:#009843;stroke-opacity:1">
      <title
         id="title265-6-9">15</title>
      <path
         inkscape:connector-curvature="0"
         d="m 96,-540 c 0,0 -84,0 -84,0 -6,0 -12,6 -12,12 0,0 0,12 0,12 0,6 6,12 12,12 0,0 84,0 84,0 6,0 12,-6 12,-12 0,0 0,-12 0,-12 0,-6 -6,-12 -12,-12"
         id="path267-7-3"
         style="fill:none;stroke:#009843;stroke-width:2;stroke-opacity:1" />
      <text
         x="54"
         y="-519.5"
         font-size="10.00"
         id="text269-5-6"
         style="font-size:10px;font-family:sans;text-anchor:middle;stroke:#009843;stroke-opacity:1">preprocess data</text>
    </g>
    <g
       transform="translate(1.1476256,501.40787)"
       id="node16-3-0-0"
       class="node"
       style="stroke:#009843;stroke-opacity:1">
      <title
         id="title265-6-9-6">15</title>
      <path
         inkscape:connector-curvature="0"
         d="m 96,-540 c 0,0 -84,0 -84,0 -6,0 -12,6 -12,12 0,0 0,12 0,12 0,6 6,12 12,12 0,0 84,0 84,0 6,0 12,-6 12,-12 0,0 0,-12 0,-12 0,-6 -6,-12 -12,-12"
         id="path267-7-3-2"
         style="fill:none;stroke:#ffb341;stroke-width:2;stroke-opacity:1" />
      <text
         x="54"
         y="-519.5"
         font-size="10.00"
         id="text269-5-6-6"
         style="font-size:10px;font-family:sans;text-anchor:middle;stroke:#ffb341;stroke-opacity:1">version \&amp; deploy</text>
    </g>
  </g>
</svg>
