<?xml version="1.0" encoding="UTF-8" standalone="no"?>
<!-- Generated by graphviz version 2.40.1 (20161225.0304)
 -->

<!-- Title: snakemake_dag Pages: 1 -->

<svg
   xmlns:dc="http://purl.org/dc/elements/1.1/"
   xmlns:cc="http://creativecommons.org/ns#"
   xmlns:rdf="http://www.w3.org/1999/02/22-rdf-syntax-ns#"
   xmlns:svg="http://www.w3.org/2000/svg"
   xmlns="http://www.w3.org/2000/svg"
   xmlns:sodipodi="http://sodipodi.sourceforge.net/DTD/sodipodi-0.dtd"
   xmlns:inkscape="http://www.inkscape.org/namespaces/inkscape"
   width="1086.5681pt"
   height="273.34055pt"
   viewBox="0 0 1086.5681 273.34055"
   version="1.1"
   id="svg426"
   sodipodi:docname="v4a_dag_all_descriptors_mod_escus.svg"
   inkscape:version="0.92.4 (f8dce91, 2019-08-02)">
  <metadata
     id="metadata432">
    <rdf:RDF>
      <cc:Work
         rdf:about="">
        <dc:format>image/svg+xml</dc:format>
        <dc:type
           rdf:resource="http://purl.org/dc/dcmitype/StillImage" />
        <dc:title />
      </cc:Work>
    </rdf:RDF>
  </metadata>
  <defs
     id="defs430" />
  <sodipodi:namedview
     pagecolor="#ffffff"
     bordercolor="#666666"
     borderopacity="1"
     objecttolerance="10"
     gridtolerance="10"
     guidetolerance="10"
     inkscape:pageopacity="0"
     inkscape:pageshadow="2"
     inkscape:window-width="2560"
     inkscape:window-height="1412"
     id="namedview428"
     showgrid="false"
     inkscape:zoom="0.92098298"
     inkscape:cx="202.2297"
     inkscape:cy="14.756467"
     inkscape:window-x="2560"
     inkscape:window-y="0"
     inkscape:window-maximized="1"
     inkscape:current-layer="graph0"
     fit-margin-top="0"
     fit-margin-left="0"
     fit-margin-right="0"
     fit-margin-bottom="0" />
  <g
     id="graph0"
     class="graph"
     transform="translate(-738.70886,344.34056)">
    <title
       id="title2">snakemake_dag</title>
    <!-- 0 -->
    <!-- 1 -->
    <path
       inkscape:connector-curvature="0"
       style="fill:none;stroke:#855cff;stroke-width:2;stroke-miterlimit:4;stroke-dasharray:none;stroke-opacity:1"
       id="path15"
       d="m 1380.5,-108 c 0,0 -124,0 -124,0 -6,0 -12,6 -12,12 0,0 0,12 0,12 0,6 6,12 12,12 0,0 124,0 124,0 6,0 12,-6 12,-12 0,0 0,-12 0,-12 0,-6 -6,-12 -12,-12" />
    <!-- 1&#45;&gt;0 -->
    <!-- 2 -->
    <!-- 2&#45;&gt;1 -->
    <!-- 3 -->
    <!-- 3&#45;&gt;1 -->
    <!-- 4 -->
    <path
       inkscape:connector-curvature="0"
       style="fill:none;stroke:#5d6fff;stroke-width:1.74939728;stroke-miterlimit:4;stroke-dasharray:none;stroke-opacity:1"
       id="path67"
       d="m 942.33445,-185 c 0,0 -193.56971,0 -193.56971,0 -4.59059,0 -9.18118,6 -9.18118,12 0,0 0,17 0,17 0,6 4.59059,12 9.18118,12 0,0 193.56971,0 193.56971,0 4.59059,0 9.18118,-6 9.18118,-12 0,0 0,-17 0,-17 0,-6 -4.59059,-12 -9.18118,-12" />
    <!-- 4&#45;&gt;1 -->
    <g
       id="edge4"
       class="edge">
      <title
         id="title76">4-&gt;1</title>
      <path
         d="m 867.3766,-145.0678 c 2.7306,0.361 5.4406,0.7172 8.1234,1.0678 124.8328,16.3114 269.6684,33.6713 358.8235,44.1774"
         id="path78"
         inkscape:connector-curvature="0"
         style="fill:none;stroke:#c0c0c0;stroke-width:2" />
      <polygon
         points="1244.379,-98.6389 1234.0384,-96.332 1234.8568,-103.284 "
         id="polygon80"
         style="fill:#c0c0c0;stroke:#c0c0c0;stroke-width:2" />
    </g>
    <!-- 5 -->
    <path
       inkscape:connector-curvature="0"
       style="fill:none;stroke:#5d6fff;stroke-width:1.74495888;stroke-miterlimit:4;stroke-dasharray:none;stroke-opacity:1"
       id="path85"
       d="m 1169.2163,-185 c 0,0 -192.58871,0 -192.58871,0 -4.56732,0 -9.13464,6 -9.13464,12 0,0 0,17 0,17 0,6 4.56732,12 9.13464,12 0,0 192.58871,0 192.58871,0 4.5674,0 9.1347,-6 9.1347,-12 0,0 0,-17 0,-17 0,-6 -4.5673,-12 -9.1347,-12" />
    <!-- 5&#45;&gt;1 -->
    <g
       id="edge5"
       class="edge">
      <title
         id="title94">5-&gt;1</title>
      <path
         d="m 1104.891,-143.9453 c 41.2082,10.4068 91.0963,23.0057 132.2939,33.4098"
         id="path96"
         inkscape:connector-curvature="0"
         style="fill:none;stroke:#c0c0c0;stroke-width:2" />
      <polygon
         points="1246.9167,-108.0778 1236.3641,-107.133 1238.0781,-113.9199 "
         id="polygon98"
         style="fill:#c0c0c0;stroke:#c0c0c0;stroke-width:2" />
    </g>
    <!-- 6 -->
    <path
       inkscape:connector-curvature="0"
       style="fill:none;stroke:#5d6fff;stroke-width:1.85658276;stroke-miterlimit:4;stroke-dasharray:none;stroke-opacity:1"
       id="path103"
       d="m 1426.2363,-185 c 0,0 -218.0164,0 -218.0164,0 -5.1704,0 -10.3407,6 -10.3407,12 0,0 0,17 0,17 0,6 5.1703,12 10.3407,12 0,0 218.0164,0 218.0164,0 5.1704,0 10.3407,-6 10.3407,-12 0,0 0,-17 0,-17 0,-6 -5.1703,-12 -10.3407,-12" />
    <!-- 6&#45;&gt;1 -->
    <g
       id="edge6"
       class="edge">
      <title
         id="title112">6-&gt;1</title>
      <path
         d="m 1318.5,-143.7476 c 0,7.8709 0,16.9733 0,25.4244"
         id="path114"
         inkscape:connector-curvature="0"
         style="fill:none;stroke:#c0c0c0;stroke-width:2" />
      <polygon
         points="1318.5,-108.1087 1315.0001,-118.1087 1322.0001,-118.1086 "
         id="polygon116"
         style="fill:#c0c0c0;stroke:#c0c0c0;stroke-width:2" />
    </g>
    <!-- 7 -->
    <path
       inkscape:connector-curvature="0"
       style="fill:none;stroke:#5d6fff;stroke-width:1.85089636;stroke-miterlimit:4;stroke-dasharray:none;stroke-opacity:1"
       id="path121"
       d="m 1694.6575,-185 c 0,0 -216.6829,0 -216.6829,0 -5.1388,0 -10.2775,6 -10.2775,12 0,0 0,17 0,17 0,6 5.1387,12 10.2775,12 0,0 216.6829,0 216.6829,0 5.1387,0 10.2775,-6 10.2775,-12 0,0 0,-17 0,-17 0,-6 -5.1388,-12 -10.2775,-12" />
    <!-- 7&#45;&gt;1 -->
    <g
       id="edge7"
       class="edge">
      <title
         id="title130">7-&gt;1</title>
      <path
         d="m 1532.109,-143.9453 c -41.2082,10.4068 -91.0963,23.0057 -132.2939,33.4098"
         id="path132"
         inkscape:connector-curvature="0"
         style="fill:none;stroke:#c0c0c0;stroke-width:2" />
      <polygon
         points="1390.0833,-108.0778 1398.9219,-113.9199 1400.6359,-107.133 "
         id="polygon134"
         style="fill:#c0c0c0;stroke:#c0c0c0;stroke-width:2" />
    </g>
    <!-- 8 -->
    <path
       inkscape:connector-curvature="0"
       style="fill:none;stroke:#5d6fff;stroke-width:1.75245929;stroke-miterlimit:4;stroke-dasharray:none;stroke-opacity:1"
       id="path139"
       d="m 1813.3426,-185 h -15.0914 c -4.6068,0 -9.2134,6 -9.2134,12 v 17 c 0,6 4.6066,12 9.2134,12 h 15.0914 c 4.6067,0 9.2134,-6 9.2134,-12 v -17 c 0,-6 -4.6067,-12 -9.2134,-12"
       sodipodi:nodetypes="csssssssc" />
    <!-- 8&#45;&gt;1 -->
    <g
       id="edge8"
       class="edge">
      <title
         id="title148">8-&gt;1</title>
      <path
         d="m 1705.2203,-137.09003 c -124.3759,16.2104 -213.3587,26.65363 -302.3419,37.18983"
         id="path150"
         inkscape:connector-curvature="0"
         style="fill:none;stroke:#c0c0c0;stroke-width:2"
         sodipodi:nodetypes="cc" />
      <polygon
         points="1392.8409,-98.7129 1402.3605,-103.3634 1403.1829,-96.4119 "
         id="polygon152"
         style="fill:#c0c0c0;stroke:#c0c0c0;stroke-width:2" />
    </g>
    <!-- 9 -->
    <!-- 9&#45;&gt;1 -->
    <!-- 10 -->
    <!-- 10&#45;&gt;1 -->
    <!-- 11 -->
    <path
       inkscape:connector-curvature="0"
       style="fill:none;stroke:#5cadff;stroke-width:1.9255774;stroke-miterlimit:4;stroke-dasharray:none;stroke-opacity:1"
       id="path193"
       d="m 1451.6742,-343.37777 c 0,0 -266.0382,0 -266.0382,0 -5.5617,0 -11.1235,6 -11.1235,12 0,0 0,12 0,12 0,6 5.5618,12 11.1235,12 0,0 266.0382,0 266.0382,0 5.5617,0 11.1235,-6 11.1235,-12 0,0 0,-12 0,-12 0,-6 -5.5618,-12 -11.1235,-12" />
    <!-- 11&#45;&gt;2 -->
    <!-- 11&#45;&gt;3 -->
    <!-- 11&#45;&gt;4 -->
    <g
       id="edge15"
       class="edge">
      <title
         id="title214">11-&gt;4</title>
      <path
         d="m 1170.0665,-322.53835 c -99.3327,6.32006 -234.45651,85.70394 -242.66538,126.7109"
         id="path216"
         inkscape:connector-curvature="0"
         style="fill:none;stroke:#c0c0c0;stroke-width:2"
         sodipodi:nodetypes="cc" />
    </g>
    <!-- 11&#45;&gt;5 -->
    <g
       id="edge18"
       class="edge">
      <title
         id="title221">11-&gt;5</title>
      <path
         d="m 1194.6269,-301.75985 c -15.854,9.766 -29.9638,87.07365 -29.6311,105.35055"
         id="path223"
         inkscape:connector-curvature="0"
         style="fill:none;stroke:#c0c0c0;stroke-width:2"
         sodipodi:nodetypes="cc" />
    </g>
    <!-- 11&#45;&gt;6 -->
    <!-- 11&#45;&gt;7 -->
    <g
       id="edge21"
       class="edge">
      <title
         id="title235">11-&gt;7</title>
      <path
         d="m 1447.8282,-303.53594 c 9.2505,16.73001 -4.0297,82.08512 26.1221,110.4518"
         id="path237"
         inkscape:connector-curvature="0"
         style="fill:none;stroke:#c0c0c0;stroke-width:2"
         sodipodi:nodetypes="cc" />
    </g>
    <!-- 11&#45;&gt;8 -->
    <g
       id="edge23"
       class="edge">
      <title
         id="title242">11-&gt;8</title>
      <path
         d="m 1467.3984,-324.64949 c 195.4103,20.0546 223.5208,13.90727 250.7918,54.36938"
         id="path244"
         inkscape:connector-curvature="0"
         style="fill:none;stroke:#c0c0c0;stroke-width:2"
         sodipodi:nodetypes="cc" />
      <polygon
         points="1769.8782,-183.947 1759.5589,-181.5466 1760.3143,-188.5057 "
         id="polygon246"
         style="fill:#c0c0c0;stroke:#c0c0c0;stroke-width:2"
         transform="rotate(35.718843,1781.8627,-160.12646)" />
    </g>
    <!-- 11&#45;&gt;9 -->
    <!-- 11&#45;&gt;10 -->
    <!-- 12 -->
    <!-- 12&#45;&gt;2 -->
    <!-- 13 -->
    <!-- 13&#45;&gt;3 -->
    <!-- 14 -->
    <path
       inkscape:connector-curvature="0"
       style="fill:none;stroke:#5cadff;stroke-width:2;stroke-miterlimit:4;stroke-dasharray:none;stroke-opacity:1"
       id="path301"
       d="m 888.50647,-262 c 0,0 -136,0 -136,0 -6,0 -12,6 -12,12 0,0 0,17 0,17 0,6 6,12 12,12 0,0 136,0 136,0 6,0 12,-6 12,-12 0,0 0,-17 0,-17 0,-6 -6,-12 -12,-12" />
    <!-- 14&#45;&gt;4 -->
    <!-- 15 -->
    <path
       inkscape:connector-curvature="0"
       style="fill:none;stroke:#5cadff;stroke-width:2;stroke-miterlimit:4;stroke-dasharray:none;stroke-opacity:1"
       id="path319"
       d="m 1145.6269,-262 c 0,0 -137,0 -137,0 -6,0 -12.00005,6 -12.00005,12 0,0 0,17 0,17 0,6 6.00005,12 12.00005,12 0,0 137,0 137,0 6,0 12,-6 12,-12 0,0 0,-17 0,-17 0,-6 -6,-12 -12,-12" />
    <!-- 15&#45;&gt;5 -->
    <!-- 16 -->
    <path
       inkscape:connector-curvature="0"
       style="fill:none;stroke:#5cadff;stroke-width:2;stroke-miterlimit:4;stroke-dasharray:none;stroke-opacity:1"
       id="path337"
       d="m 1425.2192,-262 c 0,0 -215,0 -215,0 -6,0 -12,6 -12,12 0,0 0,17 0,17 0,6 6,12 12,12 0,0 215,0 215,0 6,0 12,-6 12,-12 0,0 0,-17 0,-17 0,-6 -6,-12 -12,-12" />
    <!-- 16&#45;&gt;6 -->
    <!-- 17 -->
    <path
       inkscape:connector-curvature="0"
       style="fill:none;stroke:#5cadff;stroke-width:2;stroke-miterlimit:4;stroke-dasharray:none;stroke-opacity:1"
       id="path355"
       d="m 1694.0631,-262 c 0,0 -213,0 -213,0 -6,0 -12,6 -12,12 0,0 0,17 0,17 0,6 6,12 12,12 0,0 213,0 213,0 6,0 12,-6 12,-12 0,0 0,-17 0,-17 0,-6 -6,-12 -12,-12" />
    <!-- 17&#45;&gt;7 -->
    <!-- 18 -->
    <path
       inkscape:connector-curvature="0"
       style="fill:none;stroke:#5cadff;stroke-width:1.93825674;stroke-miterlimit:4;stroke-dasharray:none;stroke-opacity:1"
       id="path373"
       d="m 1813.0373,-262 h -10.4611 c -5.6352,0 -11.2705,6 -11.2705,12 v 17 c 0,6 5.6353,12 11.2705,12 h 10.4611 c 5.6352,0 11.2705,-6 11.2705,-12 v -17 c 0,-6 -5.6353,-12 -11.2705,-12"
       sodipodi:nodetypes="csssssssc" />
    <text
       style="font-size:10px;font-family:sans;text-anchor:middle;fill:#000000;stroke:#855cff;stroke-width:0.75;stroke-miterlimit:4;stroke-dasharray:none;stroke-opacity:1"
       id="text17"
       font-size="10.00"
       y="-93"
       x="1318.5">integrate\_descriptors</text>
    <text
       style="font-size:10px;font-family:sans;text-anchor:middle;fill:#000000;stroke:#855cff;stroke-width:0.75;stroke-miterlimit:4;stroke-dasharray:none;stroke-opacity:1"
       id="text19"
       font-size="10.00"
       y="-82"
       x="1318.5">session: y180116-land-001</text>
    <text
       style="font-size:10px;font-family:sans;text-anchor:middle;fill:#000000;stroke:#5d6fff;stroke-width:0.75;stroke-miterlimit:4;stroke-dasharray:none;stroke-opacity:1"
       id="text69"
       font-size="10.00"
       y="-173"
       x="845.6795">csv\_to\_odml</text>
    <text
       style="font-size:10px;font-family:sans;text-anchor:middle;fill:#000000;stroke:#5d6fff;stroke-width:0.75;stroke-miterlimit:4;stroke-dasharray:none;stroke-opacity:1"
       id="text71"
       font-size="10.00"
       y="-162"
       x="845.6795">filename: descriptor\_kinarm</text>
    <text
       style="font-size:10px;font-family:sans;text-anchor:middle;fill:#000000;stroke:#5d6fff;stroke-width:0.75;stroke-miterlimit:4;stroke-dasharray:none;stroke-opacity:1"
       id="text73"
       font-size="10.00"
       y="-151"
       x="845.6795">folder: \~/y180116-land-001/descriptors</text>
    <text
       style="font-size:10px;font-family:sans;text-anchor:middle;fill:#000000;stroke:#5d6fff;stroke-width:0.75;stroke-miterlimit:4;stroke-dasharray:none;stroke-opacity:1"
       id="text87"
       font-size="10.00"
       y="-173"
       x="1073.1752">csv\_to\_odml</text>
    <text
       style="font-size:10px;font-family:sans;text-anchor:middle;fill:#000000;stroke:#5d6fff;stroke-width:0.75;stroke-miterlimit:4;stroke-dasharray:none;stroke-opacity:1"
       id="text89"
       font-size="10.00"
       y="-162"
       x="1073.1752">filename: descriptor\_subject</text>
    <text
       style="font-size:10px;font-family:sans;text-anchor:middle;fill:#000000;stroke:#5d6fff;stroke-width:0.75;stroke-miterlimit:4;stroke-dasharray:none;stroke-opacity:1"
       id="text91"
       font-size="10.00"
       y="-151"
       x="1073.1752">folder: \~/y180116-land-001/descriptors</text>
    <text
       style="font-size:10px;font-family:sans;text-anchor:middle;fill:#000000;stroke:#5d6fff;stroke-width:0.75;stroke-miterlimit:4;stroke-dasharray:none;stroke-opacity:1"
       id="text105"
       font-size="10.00"
       y="-173"
       x="1318.5">csv\_to\_odml</text>
    <text
       style="font-size:10px;font-family:sans;text-anchor:middle;fill:#000000;stroke:#5d6fff;stroke-width:0.75;stroke-miterlimit:4;stroke-dasharray:none;stroke-opacity:1"
       id="text107"
       font-size="10.00"
       y="-162"
       x="1318.5">filename: descriptor\_analog\_communication</text>
    <text
       style="font-size:10px;font-family:sans;text-anchor:middle;fill:#000000;stroke:#5d6fff;stroke-width:0.75;stroke-miterlimit:4;stroke-dasharray:none;stroke-opacity:1"
       id="text109"
       font-size="10.00"
       y="-151"
       x="1318.5">folder: \~/y180116-land-001/descriptors</text>
    <text
       style="font-size:10px;font-family:sans;text-anchor:middle;fill:#000000;stroke:#5d6fff;stroke-width:0.75;stroke-miterlimit:4;stroke-dasharray:none;stroke-opacity:1"
       id="text123"
       font-size="10.00"
       y="-173"
       x="1584.9978">csv\_to\_odml</text>
    <text
       style="font-size:10px;font-family:sans;text-anchor:middle;fill:#000000;stroke:#5d6fff;stroke-width:0.75;stroke-miterlimit:4;stroke-dasharray:none;stroke-opacity:1"
       id="text125"
       font-size="10.00"
       y="-162"
       x="1584.9978">filename: descriptor\_digital\_communication</text>
    <text
       style="font-size:10px;font-family:sans;text-anchor:middle;fill:#000000;stroke:#5d6fff;stroke-width:0.75;stroke-miterlimit:4;stroke-dasharray:none;stroke-opacity:1"
       id="text127"
       font-size="10.00"
       y="-151"
       x="1584.9978">folder: \~/y180116-land-001/descriptors</text>
    <text
       style="font-size:10px;font-family:sans;text-anchor:middle;fill:#000000;stroke:#5d6fff;stroke-width:0.75;stroke-miterlimit:4;stroke-dasharray:none;stroke-opacity:1"
       id="text143"
       font-size="10.00"
       y="-162"
       x="1805.5927">...</text>
    <text
       style="font-size:10px;font-family:sans;text-anchor:middle;fill:#000000;stroke:#5d6fff;stroke-width:0.75;stroke-miterlimit:4;stroke-dasharray:none;stroke-opacity:1"
       id="text145"
       font-size="10.00"
       y="-151"
       x="1894.0927" />
    <text
       style="font-size:10px;font-family:sans;text-anchor:middle;fill:#000000;stroke:#5cadff;stroke-width:0.75;stroke-miterlimit:4;stroke-dasharray:none;stroke-opacity:1"
       id="text195"
       font-size="10.00"
       y="-328.37778"
       x="1319.2977">add\_odML\_style\_sheet</text>
    <text
       style="font-size:10px;font-family:sans;text-anchor:middle;fill:#000000;stroke:#5cadff;stroke-width:0.75;stroke-miterlimit:4;stroke-dasharray:none;stroke-opacity:1"
       id="text197"
       font-size="10.00"
       y="-317.37778"
       x="1319.2977">folder: \~/y180116-land-001/descriptors/odMLs</text>
    <text
       style="font-size:10px;font-family:sans;text-anchor:middle;fill:#000000;stroke:#5cadff;stroke-width:0.75;stroke-miterlimit:4;stroke-dasharray:none;stroke-opacity:1"
       id="text303"
       font-size="10.00"
       y="-250"
       x="820.50647">copy\_descriptors</text>
    <text
       style="font-size:10px;font-family:sans;text-anchor:middle;fill:#000000;stroke:#5cadff;stroke-width:0.75;stroke-miterlimit:4;stroke-dasharray:none;stroke-opacity:1"
       id="text305"
       font-size="10.00"
       y="-239"
       x="820.50647">descriptor: descriptor\_kinarm</text>
    <text
       style="font-size:10px;font-family:sans;text-anchor:middle;fill:#000000;stroke:#5cadff;stroke-width:0.75;stroke-miterlimit:4;stroke-dasharray:none;stroke-opacity:1"
       id="text307"
       font-size="10.00"
       y="-228"
       x="820.50647">session: y180116-land-001</text>
    <text
       style="font-size:10px;font-family:sans;text-anchor:middle;fill:#000000;stroke:#5cadff;stroke-width:0.75;stroke-miterlimit:4;stroke-dasharray:none;stroke-opacity:1"
       id="text321"
       font-size="10.00"
       y="-250"
       x="1077.1268">copy\_descriptors</text>
    <text
       style="font-size:10px;font-family:sans;text-anchor:middle;fill:#000000;stroke:#5cadff;stroke-width:0.75;stroke-miterlimit:4;stroke-dasharray:none;stroke-opacity:1"
       id="text323"
       font-size="10.00"
       y="-239"
       x="1077.1268">descriptor: descriptor\_subject</text>
    <text
       style="font-size:10px;font-family:sans;text-anchor:middle;fill:#000000;stroke:#5cadff;stroke-width:0.75;stroke-miterlimit:4;stroke-dasharray:none;stroke-opacity:1"
       id="text325"
       font-size="10.00"
       y="-226.70439"
       x="1075.9751">session: y180116-land-001</text>
    <text
       style="font-size:10px;font-family:sans;text-anchor:middle;fill:#000000;stroke:#5cadff;stroke-width:0.75;stroke-miterlimit:4;stroke-dasharray:none;stroke-opacity:1"
       id="text339"
       font-size="10.00"
       y="-250"
       x="1317.7192">copy\_descriptors</text>
    <text
       style="font-size:10px;font-family:sans;text-anchor:middle;fill:#000000;stroke:#5cadff;stroke-width:0.75;stroke-miterlimit:4;stroke-dasharray:none;stroke-opacity:1"
       id="text341"
       font-size="10.00"
       y="-239"
       x="1317.7192">descriptor: descriptor\_analog\_communication</text>
    <text
       style="font-size:10px;font-family:sans;text-anchor:middle;fill:#000000;stroke:#5cadff;stroke-width:0.75;stroke-miterlimit:4;stroke-dasharray:none;stroke-opacity:1"
       id="text343"
       font-size="10.00"
       y="-228"
       x="1317.7192">session: y180116-land-001</text>
    <text
       style="font-size:10px;font-family:sans;text-anchor:middle;fill:#000000;stroke:#5cadff;stroke-width:0.75;stroke-miterlimit:4;stroke-dasharray:none;stroke-opacity:1"
       id="text357"
       font-size="10.00"
       y="-250"
       x="1587.5631">copy\_descriptors</text>
    <text
       style="font-size:10px;font-family:sans;text-anchor:middle;fill:#000000;stroke:#5cadff;stroke-width:0.75;stroke-miterlimit:4;stroke-dasharray:none;stroke-opacity:1"
       id="text359"
       font-size="10.00"
       y="-239"
       x="1587.5631">descriptor: descriptor\_digital\_communication</text>
    <text
       style="font-size:10px;font-family:sans;text-anchor:middle;fill:#000000;stroke:#5cadff;stroke-width:0.75;stroke-miterlimit:4;stroke-dasharray:none;stroke-opacity:1"
       id="text361"
       font-size="10.00"
       y="-228"
       x="1587.5631">session: y180116-land-001</text>
    <text
       style="font-size:10px;font-family:sans;text-anchor:middle;fill:#000000;stroke:#5cadff;stroke-width:0.75;stroke-miterlimit:4;stroke-dasharray:none;stroke-opacity:1"
       id="text377"
       font-size="10.00"
       y="-239"
       x="1808.8057">...</text>
    <!-- 18&#45;&gt;8 -->
    <path
       style="fill:none;stroke:#c0c0c0;stroke-width:2"
       inkscape:connector-curvature="0"
       id="path384"
       d="m 1592.5154,-219.3385 -0.118,23.94881"
       sodipodi:nodetypes="cc" />
    <polygon
       style="fill:#c0c0c0;stroke:#c0c0c0;stroke-width:2"
       id="polygon386"
       points="1916.7228,-194.5333 1911.7247,-185.1915 1909.8063,-195.6113 "
       transform="rotate(-53.255381,1692.9105,245.32407)"
       inkscape:transform-center-x="4.0737137"
       inkscape:transform-center-y="1.1939676" />
    <path
       sodipodi:nodetypes="cc"
       style="fill:none;stroke:#c0c0c0;stroke-width:2;stroke-miterlimit:4;stroke-dasharray:2.00000004, 16.00000031;stroke-dashoffset:0"
       inkscape:connector-curvature="0"
       id="path384-7"
       d="m 1780.7597,-192.03847 -62.5695,-78.24164" />
    <path
       sodipodi:nodetypes="cc"
       style="fill:none;stroke:#c0c0c0;stroke-width:1.99999988;stroke-miterlimit:4;stroke-dasharray:1.99999997, 15.99999974;stroke-dashoffset:0"
       inkscape:connector-curvature="0"
       id="path384-7-9"
       d="m 1705.2203,-137.09003 77.4108,-18.65628" />
    <path
       sodipodi:nodetypes="cc"
       style="fill:none;stroke:#5cadff;stroke-width:1.99999988;stroke-miterlimit:4;stroke-dasharray:1.99999997, 15.99999974;stroke-dashoffset:0;stroke-opacity:1"
       inkscape:connector-curvature="0"
       id="path384-7-3"
       d="m 1766.8385,-242.34256 -60.5204,0.27927" />
    <path
       sodipodi:nodetypes="cc"
       style="fill:none;stroke:#5d6fff;stroke-width:1.99999988;stroke-miterlimit:4;stroke-dasharray:1.9999999, 15.99999917;stroke-dashoffset:0;stroke-opacity:1"
       inkscape:connector-curvature="0"
       id="path384-7-3-9"
       d="m 1778.4564,-164.83939 -66.2787,0.56719" />
    <!-- 19 -->
    <!-- 19&#45;&gt;9 -->
    <!-- 20 -->
    <!-- 20&#45;&gt;10 -->
    <path
       style="fill:none;stroke:#c0c0c0;stroke-width:1.99999988"
       inkscape:connector-curvature="0"
       id="path384-5"
       d="m 1806.5804,-219.3385 -0.118,23.94881"
       sodipodi:nodetypes="cc" />
    <polygon
       style="fill:#c0c0c0;stroke:#c0c0c0;stroke-width:2"
       id="polygon386-2"
       points="1916.7228,-194.5333 1911.7247,-185.1915 1909.8063,-195.6113 "
       transform="rotate(-9.5352979,1860.5454,444.41328)" />
    <path
       style="fill:none;stroke:#c0c0c0;stroke-width:1.99999988"
       inkscape:connector-curvature="0"
       id="path384-6"
       d="m 1320.0343,-219.83252 -0.118,23.94881"
       sodipodi:nodetypes="cc" />
    <polygon
       style="fill:#c0c0c0;stroke:#c0c0c0;stroke-width:2"
       id="polygon386-5"
       points="1909.8063,-195.6113 1916.7228,-194.5333 1911.7247,-185.1915 "
       transform="rotate(-9.5352979,1614.3108,3360.9778)" />
    <path
       style="fill:none;stroke:#c0c0c0;stroke-width:1.99999988"
       inkscape:connector-curvature="0"
       id="path384-8"
       d="m 1078.0415,-219.25668 -0.118,23.94881"
       sodipodi:nodetypes="cc" />
    <polygon
       style="fill:#c0c0c0;stroke:#c0c0c0;stroke-width:2"
       id="polygon386-7"
       points="1909.8063,-195.6113 1916.7228,-194.5333 1911.7247,-185.1915 "
       transform="rotate(-9.5352979,1496.7665,4811.9963)" />
    <path
       style="fill:none;stroke:#c0c0c0;stroke-width:1.99999988"
       inkscape:connector-curvature="0"
       id="path384-9"
       d="m 824.24423,-219.40064 -0.118,23.94881"
       sodipodi:nodetypes="cc" />
    <polygon
       style="fill:#c0c0c0;stroke:#c0c0c0;stroke-width:2"
       id="polygon386-6"
       points="1909.8063,-195.6113 1916.7228,-194.5333 1911.7247,-185.1915 "
       transform="rotate(-9.5352979,1369.0048,6333.4222)" />
    <path
       d="m 1440.6708,-302.55225 c 3.9253,11.69193 8.0306,81.30661 -2.6695,107.57263"
       id="path237-0"
       inkscape:connector-curvature="0"
       style="fill:none;stroke:#c0c0c0;stroke-width:1.99999988"
       sodipodi:nodetypes="cc" />
    <polygon
       style="fill:#c0c0c0;stroke:#c0c0c0;stroke-width:2"
       id="polygon386-7-4"
       points="1911.7247,-185.1915 1909.8063,-195.6113 1916.7228,-194.5333 "
       transform="rotate(-9.5352984,1421.3677,5718.002)" />
    <polygon
       style="fill:#c0c0c0;stroke:#c0c0c0;stroke-width:2"
       id="polygon386-7-1"
       points="1911.7247,-185.1915 1909.8063,-195.6113 1916.7228,-194.5333 "
       transform="rotate(-9.5352984,1536.7028,4290.9446)" />
    <polygon
       style="fill:#c0c0c0;stroke:#c0c0c0;stroke-width:2"
       id="polygon386-7-0"
       points="1909.8063,-195.6113 1916.7228,-194.5333 1911.7247,-185.1915 "
       transform="rotate(-9.5352984,1744.3665,1727.4077)" />
    <polygon
       style="fill:#c0c0c0;stroke:#c0c0c0;stroke-width:2"
       id="polygon386-7-48"
       points="1909.8063,-195.6113 1916.7228,-194.5333 1911.7247,-185.1915 "
       transform="rotate(22.029528,1679.1849,-1416.0089)" />
  </g>
</svg>
