<?xml version="1.0" encoding="UTF-8" standalone="no"?>
<!-- Generated by graphviz version 2.40.1 (20161225.0304)
 -->

<!-- Title: snakemake_dag Pages: 1 -->

<svg
   xmlns:dc="http://purl.org/dc/elements/1.1/"
   xmlns:cc="http://creativecommons.org/ns#"
   xmlns:rdf="http://www.w3.org/1999/02/22-rdf-syntax-ns#"
   xmlns:svg="http://www.w3.org/2000/svg"
   xmlns="http://www.w3.org/2000/svg"
   xmlns:sodipodi="http://sodipodi.sourceforge.net/DTD/sodipodi-0.dtd"
   xmlns:inkscape="http://www.inkscape.org/namespaces/inkscape"
   width="989.77979pt"
   height="308.1254pt"
   viewBox="0 0 989.7798 308.1254"
   version="1.1"
   id="svg296"
   sodipodi:docname="v4a_dag_all_apps_mod_escus.svg"
   inkscape:version="0.92.4 (f8dce91, 2019-08-02)">
  <metadata
     id="metadata302">
    <rdf:RDF>
      <cc:Work
         rdf:about="">
        <dc:format>image/svg+xml</dc:format>
        <dc:type
           rdf:resource="http://purl.org/dc/dcmitype/StillImage" />
        <dc:title></dc:title>
      </cc:Work>
    </rdf:RDF>
  </metadata>
  <defs
     id="defs300" />
  <sodipodi:namedview
     pagecolor="#ffffff"
     bordercolor="#666666"
     borderopacity="1"
     objecttolerance="10"
     gridtolerance="10"
     guidetolerance="10"
     inkscape:pageopacity="0"
     inkscape:pageshadow="2"
     inkscape:window-width="2560"
     inkscape:window-height="1412"
     id="namedview298"
     showgrid="false"
     inkscape:zoom="2.0057637"
     inkscape:cx="917.04545"
     inkscape:cy="212.70296"
     inkscape:window-x="0"
     inkscape:window-y="0"
     inkscape:window-maximized="1"
     inkscape:current-layer="svg296"
     fit-margin-top="0"
     fit-margin-left="-0.1"
     fit-margin-right="0"
     fit-margin-bottom="0" />
  <path
     d="m 977.0298,169.83985 c 0,0 -142.99996,0 -142.99996,0 -6,0 -12,6 -12,12 0,0 0,17 0,17 0,6 6,12 12,12 0,0 142.99996,0 142.99996,0 6,0 12.00004,-6 12.00004,-12 0,0 0,-17 0,-17 0,-6 -6.00004,-12 -12.00004,-12"
     id="path63-9"
     inkscape:connector-curvature="0"
     style="fill:#ffffff;fill-opacity:1;stroke:#009900;stroke-width:1.5;stroke-miterlimit:4;stroke-dasharray:none;stroke-opacity:1" />
  <path
     d="m 966.56004,169.83984 c 0,0 -143.00003,0 -143.00003,0 -6,0 -12,6 -12,12 0,0 0,17 0,17 0,6 6,12 12,12 0,0 143.00003,0 143.00003,0 6,0 12,-6 12,-12 0,0 0,-17 0,-17 0,-6 -6,-12 -12,-12"
     id="path63-8"
     inkscape:connector-curvature="0"
     style="fill:#ffffff;fill-opacity:1;stroke:#009900;stroke-width:1.5;stroke-miterlimit:4;stroke-dasharray:none;stroke-opacity:1" />
  <path
     d="m 157.64447,74.769125 c 0,0 -130.999995,0 -130.999995,0 -6.000001,0 -12,6 -12,11.999999 0,0 0,12 0,12 0,5.999996 5.999999,11.999996 12,11.999996 0,0 130.999995,0 130.999995,0 6,0 12,-6 12,-11.999996 0,0 0,-12 0,-12 0,-5.999999 -6,-11.999999 -12,-11.999999"
     id="path183-0-6"
     inkscape:connector-curvature="0"
     style="fill:#ffffff;fill-opacity:1;stroke:#009973;stroke-width:1.5;stroke-miterlimit:4;stroke-dasharray:none;stroke-opacity:1" />
  <path
     d="m 151.431,75.16573 c 0,0 -130.999998,0 -130.999998,0 -6,0 -12,6 -12,12.000001 0,0 0,12 0,12 0,5.999999 6,11.999999 12,11.999999 0,0 130.999998,0 130.999998,0 6,0 12,-6 12,-11.999999 0,0 0,-12 0,-12 0,-6.000001 -6,-12.000001 -12,-12.000001"
     id="path183-0-7"
     inkscape:connector-curvature="0"
     style="fill:#ffffff;fill-opacity:1;stroke:#009973;stroke-width:1.5;stroke-miterlimit:4;stroke-dasharray:none;stroke-opacity:1" />
  <g
     class="node"
     id="node8"
     transform="translate(-0.83006,257.75)"
     style="stroke:#009973;stroke-opacity:1">
    <title
       id="title113">7</title>
    <text
       style="font-size:10px;font-family:sans;text-anchor:middle;fill:#000000;stroke:#009973;stroke-opacity:1"
       id="text117"
       font-size="10.00"
       y="-167.5"
       x="490">run\_data\_app</text>
  </g>
  <path
     d="m 343.22009,271.37541 c 0,0 -128,0 -128,0 -6,0 -12,6 -12,12 0,0 0,12 0,12 0,6 6,12 12,12 0,0 128,0 128,0 6,0 12,-6 12,-12 0,0 0,-12 0,-12 0,-6 -6,-12 -12,-12"
     id="path15"
     inkscape:connector-curvature="0"
     style="fill:none;stroke:#0e0e0e;stroke-width:1.5;stroke-miterlimit:4;stroke-dasharray:none;stroke-opacity:1" />
  <path
     d="m 360.11627,75.25 c 0,0 -148,0 -148,0 -6,0 -12,6 -12,12 0,0 0,12 0,12 0,6 6,12 12,12 0,0 148,0 148,0 6,0 12,-6 12,-12 0,0 0,-12 0,-12 0,-6 -6,-12 -12,-12"
     id="path29"
     inkscape:connector-curvature="0"
     style="fill:none;stroke:#009973;stroke-width:1.5;stroke-miterlimit:4;stroke-dasharray:none;stroke-opacity:1" />
  <path
     d="m 409.47092,170.05033 c 0,0 -126,0 -126,0 -6,0 -12,6 -12,12 0,0 0,17 0,17 0,6 6,12 12,12 0,0 126,0 126,0 6,0 12,-6 12,-12 0,0 0,-17 0,-17 0,-6 -6,-12 -12,-12"
     id="path45"
     inkscape:connector-curvature="0"
     style="fill:none;stroke:#009900;stroke-width:1.5;stroke-miterlimit:4;stroke-dasharray:none;stroke-opacity:1" />
  <path
     sodipodi:nodetypes="cc"
     d="M 402.43291,114.86231 C 226.51709,141.1791 184.86788,220.78339 205.04193,264.73348"
     id="path56"
     inkscape:connector-curvature="0"
     style="fill:none;stroke:#c0c0c0;stroke-width:2" />
  <polygon
     points="1154.2927,-108.0778 1143.7193,-108.7529 1146.4481,-115.1991 "
     id="polygon58"
     style="fill:#c0c0c0;stroke:#c0c0c0;stroke-width:2"
     transform="translate(-955.68908,391.68321)" />
  <path
     d="m 956.73193,170.05033 c 0,0 -143,0 -143,0 -6,0 -12,6 -12,12 0,0 0,17 0,17 0,6 6,12 12,12 0,0 143,0 143,0 6,0 12,-6 12,-12 0,0 0,-17 0,-17 0,-6 -6,-12 -12,-12"
     id="path63"
     inkscape:connector-curvature="0"
     style="fill:#ffffff;fill-opacity:1;stroke:#009900;stroke-width:1.5;stroke-miterlimit:4;stroke-dasharray:none;stroke-opacity:1" />
  <path
     sodipodi:nodetypes="cc"
     d="m 688.51605,114.0024 c -137.6659,15.34928 -524.92823,6.90228 -473.2815,150.22265"
     id="path74"
     inkscape:connector-curvature="0"
     style="fill:none;stroke:#c0c0c0;stroke-width:2" />
  <polygon
     points="1193.5001,-118.1087 1200.5001,-118.1086 1197,-108.1087 "
     id="polygon76"
     style="fill:#c0c0c0;stroke:#c0c0c0;stroke-width:2"
     transform="rotate(-18.981771,1825.922,3011.9912)" />
  <path
     d="m 574.33113,170.05033 c 0,0 -123.99997,0 -123.99997,0 -6,0 -12,6 -12,12 0,0 0,17 0,17 0,6 6,12 12,12 0,0 123.99997,0 123.99997,0 6,0 12,-6 12,-12 0,0 0,-17 0,-17 0,-6 -6,-12 -12,-12"
     id="path81"
     inkscape:connector-curvature="0"
     style="fill:none;stroke:#009900;stroke-width:1.5;stroke-miterlimit:4;stroke-dasharray:none;stroke-opacity:1" />
  <g
     class="edge"
     id="edge5"
     transform="translate(-1030.9444,355.05033)">
    <title
       id="title90">5-&gt;1</title>
    <path
       style="fill:none;stroke:#c0c0c0;stroke-width:2"
       inkscape:connector-curvature="0"
       id="path92"
       d="m 1324.0674,-142.07569 6.416,42.41723"
       sodipodi:nodetypes="cc" />
  </g>
  <path
     d="m 579.61627,75.25 c 0,0 -177,0 -177,0 -6,0 -12,6 -12,12 0,0 0,12 0,12 0,6 6,12 12,12 0,0 177,0 177,0 6,0 12,-6 12,-12 0,0 0,-12 0,-12 0,-6 -6,-12 -12,-12"
     id="path99"
     inkscape:connector-curvature="0"
     style="fill:none;stroke:#009973;stroke-width:1.5;stroke-miterlimit:4;stroke-dasharray:none;stroke-opacity:1" />
  <path
     sodipodi:nodetypes="cc"
     d="m 93.22146,155.84579 c 23.11059,52.12031 43.31275,79.25453 102.38216,129.25962"
     id="path124"
     inkscape:connector-curvature="0"
     style="fill:none;stroke:#c0c0c0;stroke-width:2" />
  <path
     d="m 740.33113,170.05033 c 0,0 -124,0 -124,0 -6,0 -12,6 -12,12 0,0 0,17 0,17 0,6 6,12 12,12 0,0 124,0 124,0 6,0 12,-6 12,-12 0,0 0,-17 0,-17 0,-6 -6,-12 -12,-12"
     id="path147"
     inkscape:connector-curvature="0"
     style="fill:none;stroke:#009900;stroke-width:1.5;stroke-miterlimit:4;stroke-dasharray:none;stroke-opacity:1" />
  <path
     sodipodi:nodetypes="cc"
     d="M 442.63,212.1721 328.70424,262.31125"
     id="path158"
     inkscape:connector-curvature="0"
     style="fill:none;stroke:#c0c0c0;stroke-width:2" />
  <polygon
     points="1273.0902,-105.102 1282.1964,-110.5176 1283.586,-103.6569 "
     id="polygon160"
     style="fill:#c0c0c0;stroke:#c0c0c0;stroke-width:2"
     transform="rotate(-84.926437,989.62173,611.91716)" />
  <path
     sodipodi:nodetypes="cc"
     d="M 609.0039,213.29386 356.44757,264.27047"
     id="path176"
     inkscape:connector-curvature="0"
     style="fill:none;stroke:#c0c0c0;stroke-width:2" />
  <path
     d="m 756.0281,75.25 c 0,0 -131,0 -131,0 -6,0 -12,6 -12,12 0,0 0,12 0,12 0,6 6,12 12,12 0,0 131,0 131,0 6,0 12,-6 12,-12 0,0 0,-12 0,-12 0,-6 -6,-12 -12,-12"
     id="path183"
     inkscape:connector-curvature="0"
     style="fill:none;stroke:#009973;stroke-width:1.5;stroke-miterlimit:4;stroke-dasharray:none;stroke-opacity:1" />
  <path
     sodipodi:nodetypes="cc"
     d="m 222.17158,116.54892 c -6.59905,27.64177 -48.45642,119.8538 -24.18703,155.56469"
     id="path192"
     inkscape:connector-curvature="0"
     style="fill:none;stroke:#c0c0c0;stroke-width:2" />
  <path
     sodipodi:nodetypes="cc"
     d="M 746.9597,223.38977 360.8742,275.38602"
     id="path210"
     inkscape:connector-curvature="0"
     style="fill:none;stroke:#c0c0c0;stroke-width:2" />
  <path
     d="m 551.16994,0.75 c 0,0 -124,0 -124,0 -6,0 -12,6 -12,12 0,0 0,12 0,12 0,6 6,12 12,12 0,0 124,0 124,0 6,0 12,-6 12,-12 0,0 0,-12 0,-12 0,-6 -6,-12 -12,-12"
     id="path253"
     inkscape:connector-curvature="0"
     style="fill:none;stroke:#ab41ff;stroke-width:1.5;stroke-miterlimit:4;stroke-dasharray:none;stroke-opacity:1" />
  <g
     class="edge"
     id="edge16"
     transform="translate(-0.83006,257.75)">
    <title
       id="title267">15-&gt;6</title>
    <path
       style="fill:none;stroke:#c0c0c0;stroke-width:2"
       inkscape:connector-curvature="0"
       id="path269"
       d="m 441.8277,-220.9656 c -27.9035,10.4462 -63.2231,23.6689 -92.668,34.6922" />
    <polygon
       style="fill:#c0c0c0;stroke:#c0c0c0;stroke-width:2"
       id="polygon271"
       points="339.4185,-182.6265 347.5565,-189.4105 350.0108,-182.8548 " />
  </g>
  <g
     class="edge"
     id="edge17"
     transform="translate(-0.83006,257.75)">
    <title
       id="title274">15-&gt;7</title>
    <path
       style="fill:none;stroke:#c0c0c0;stroke-width:2"
       inkscape:connector-curvature="0"
       id="path276"
       d="m 490,-220.9656 c 0,8.4478 0,18.7114 0,28.1592" />
    <polygon
       style="fill:#c0c0c0;stroke:#c0c0c0;stroke-width:2"
       id="polygon278"
       points="490,-182.6265 486.5001,-192.6265 493.5001,-192.6265 " />
  </g>
  <g
     class="edge"
     id="edge18"
     transform="translate(-0.83006,257.75)">
    <title
       id="title281">15-&gt;8</title>
    <path
       style="fill:none;stroke:#c0c0c0;stroke-width:2"
       inkscape:connector-curvature="0"
       id="path283"
       d="m 533.8151,-220.9656 c 25.1587,10.3554 56.9461,23.4391 83.586,34.4042" />
    <polygon
       style="fill:#c0c0c0;stroke:#c0c0c0;stroke-width:2"
       id="polygon285"
       points="626.9611,-182.6265 616.3816,-183.1962 619.046,-189.6693 " />
  </g>
  <path
     d="m 143.65,75.25 c 0,0 -131,0 -131,0 -6,0 -12,6 -12,12 0,0 0,12 0,12 0,6 6,12 12,12 0,0 131,0 131,0 6,0 12,-6 12,-12 0,0 0,-12 0,-12 0,-6 -6,-12 -12,-12"
     id="path183-0"
     inkscape:connector-curvature="0"
     style="fill:#ffffff;fill-opacity:1;stroke:#009973;stroke-width:1.5;stroke-miterlimit:4;stroke-dasharray:none;stroke-opacity:1" />
  <text
     x="279.22012"
     y="291.87543"
     font-size="10.00"
     id="text17"
     style="font-size:10px;font-family:sans;text-anchor:middle;fill:#000000;stroke:#0e0e0e;stroke-width:0.75;stroke-miterlimit:4;stroke-dasharray:none;stroke-opacity:1">run\_all\_preprocessing\_apps</text>
  <text
     x="286.11624"
     y="90.25"
     font-size="10.00"
     id="text31"
     style="font-size:10px;font-family:sans;text-anchor:middle;fill:#000000;stroke:#009973;stroke-width:0.75;stroke-miterlimit:4;stroke-dasharray:none;stroke-opacity:1">run\_data\_app</text>
  <text
     x="286.11624"
     y="101.25"
     font-size="10.00"
     id="text33"
     style="font-size:10px;font-family:sans;text-anchor:middle;fill:#000000;stroke:#009973;stroke-width:0.75;stroke-miterlimit:4;stroke-dasharray:none;stroke-opacity:1">app: app\_synchrofact\_detection</text>
  <text
     x="346.47095"
     y="182.05032"
     font-size="10.00"
     id="text47"
     style="font-size:10px;font-family:sans;text-anchor:middle;fill:#000000;stroke:#009900;stroke-width:0.75;stroke-miterlimit:4;stroke-dasharray:none;stroke-opacity:1">run\_metadata\_app</text>
  <text
     x="346.47095"
     y="193.05032"
     font-size="10.00"
     id="text49"
     style="font-size:10px;font-family:sans;text-anchor:middle;fill:#000000;stroke:#009900;stroke-width:0.75;stroke-miterlimit:4;stroke-dasharray:none;stroke-opacity:1">app: app\_is\_session\_sorted</text>
  <text
     x="346.47095"
     y="204.05032"
     font-size="10.00"
     id="text51"
     style="font-size:10px;font-family:sans;text-anchor:middle;fill:#000000;stroke:#009900;stroke-width:0.75;stroke-miterlimit:4;stroke-dasharray:none;stroke-opacity:1">session: y180116-land-001</text>
  <text
     x="885.23193"
     y="182.05032"
     font-size="10.00"
     id="text65"
     style="font-size:10px;font-family:sans;text-anchor:middle;fill:#000000;stroke:#009900;stroke-width:0.75;stroke-miterlimit:4;stroke-dasharray:none;stroke-opacity:1">run\_metadata\_app</text>
  <text
     x="885.23193"
     y="193.05032"
     font-size="10.00"
     id="text67"
     style="font-size:10px;font-family:sans;text-anchor:middle;fill:#000000;stroke:#009900;stroke-width:0.75;stroke-miterlimit:4;stroke-dasharray:none;stroke-opacity:1">app:&lt;application&gt;</text>
  <text
     x="885.23193"
     y="204.05032"
     font-size="10.00"
     id="text69"
     style="font-size:10px;font-family:sans;text-anchor:middle;fill:#000000;stroke:#009900;stroke-width:0.75;stroke-miterlimit:4;stroke-dasharray:none;stroke-opacity:1">session: y180116-land-001</text>
  <text
     x="512.33118"
     y="182.05032"
     font-size="10.00"
     id="text83"
     style="font-size:10px;font-family:sans;text-anchor:middle;fill:#000000;stroke:#009900;stroke-width:0.75;stroke-miterlimit:4;stroke-dasharray:none;stroke-opacity:1">run\_metadata\_app</text>
  <text
     x="512.33118"
     y="193.05032"
     font-size="10.00"
     id="text85"
     style="font-size:10px;font-family:sans;text-anchor:middle;fill:#000000;stroke:#009900;stroke-width:0.75;stroke-miterlimit:4;stroke-dasharray:none;stroke-opacity:1">app: app\_overview\_plot</text>
  <text
     x="512.33118"
     y="204.05032"
     font-size="10.00"
     id="text87"
     style="font-size:10px;font-family:sans;text-anchor:middle;fill:#000000;stroke:#009900;stroke-width:0.75;stroke-miterlimit:4;stroke-dasharray:none;stroke-opacity:1">session: y180116-land-001</text>
  <text
     x="494.85547"
     y="101.25"
     font-size="10.00"
     id="text103"
     style="font-size:10px;font-family:sans;text-anchor:middle;fill:#000000;stroke:#009973;stroke-width:0.75;stroke-miterlimit:4;stroke-dasharray:none;stroke-opacity:1">app: app\_cross\_talk\_detection\_in\_ns6</text>
  <text
     x="678.33118"
     y="182.05032"
     font-size="10.00"
     id="text149"
     style="font-size:10px;font-family:sans;text-anchor:middle;fill:#000000;stroke:#009900;stroke-width:0.75;stroke-miterlimit:4;stroke-dasharray:none;stroke-opacity:1">run\_metadata\_app</text>
  <text
     x="678.33118"
     y="193.05032"
     font-size="10.00"
     id="text151"
     style="font-size:10px;font-family:sans;text-anchor:middle;fill:#000000;stroke:#009900;stroke-width:0.75;stroke-miterlimit:4;stroke-dasharray:none;stroke-opacity:1">app: app\_event\_check</text>
  <text
     x="678.33118"
     y="204.05032"
     font-size="10.00"
     id="text153"
     style="font-size:10px;font-family:sans;text-anchor:middle;fill:#000000;stroke:#009900;stroke-width:0.75;stroke-miterlimit:4;stroke-dasharray:none;stroke-opacity:1">session: y180116-land-001</text>
  <text
     x="690.52814"
     y="101.25"
     font-size="10.00"
     id="text187"
     style="font-size:10px;font-family:sans;text-anchor:middle;fill:#000000;stroke:#009973;stroke-width:0.75;stroke-miterlimit:4;stroke-dasharray:none;stroke-opacity:1">app: app\_saccade\_detection</text>
  <text
     x="489.16992"
     y="15.75"
     font-size="10.00"
     id="text255"
     style="font-size:10px;font-family:sans;text-anchor:middle;fill:#000000;stroke:#ab41ff;stroke-width:0.75;stroke-miterlimit:4;stroke-dasharray:none;stroke-opacity:1">data\_to\_nix</text>
  <text
     x="489.16992"
     y="26.75"
     font-size="10.00"
     id="text257"
     style="font-size:10px;font-family:sans;text-anchor:middle;fill:#000000;stroke:#ab41ff;stroke-width:0.75;stroke-miterlimit:4;stroke-dasharray:none;stroke-opacity:1">session: y180116-land-001</text>
  <text
     x="78.150002"
     y="90.25"
     font-size="10.00"
     id="text185-6"
     style="font-size:10px;font-family:sans;text-anchor:middle;fill:#000000;stroke:#009973;stroke-width:0.75;stroke-miterlimit:4;stroke-dasharray:none;stroke-opacity:1">run\_data\_app</text>
  <text
     x="78.150002"
     y="101.25"
     font-size="10.00"
     id="text187-4"
     style="font-size:10px;font-family:sans;text-anchor:middle;fill:#000000;stroke:#009973;stroke-width:0.75;stroke-miterlimit:4;stroke-dasharray:none;stroke-opacity:1">app:<tspan
   id="tspan5236"
   style="font-style:italic;font-variant:normal;font-weight:normal;font-stretch:normal;font-family:sans;-inkscape-font-specification:'sans Italic';stroke:#009973;stroke-width:0.75;stroke-miterlimit:4;stroke-dasharray:none;stroke-opacity:1">&lt;application&gt;</tspan>
</text>
  <flowRoot
     style="font-style:normal;font-weight:normal;font-size:10.66666698px;line-height:1.25;font-family:sans-serif;letter-spacing:0px;word-spacing:0px;fill:#000000;fill-opacity:1;stroke:none;stroke-width:0.75;stroke-miterlimit:4;stroke-dasharray:none"
     id="flowRoot5838"
     xml:space="preserve"
     transform="translate(-4.83006,-3.25)"><flowRegion
       id="flowRegion5840"><rect
         y="-100.3592"
         x="2545.6638"
         height="396.85632"
         width="720.92242"
         id="rect5842" /></flowRegion><flowPara
       id="flowPara5844" /></flowRoot>  <g
     class="edge"
     id="edge16-0"
     transform="translate(-203.0476,251.96118)">
    <title
       id="title267-6">15-&gt;6</title>
    <path
       style="fill:none;stroke:#c0c0c0;stroke-width:2"
       inkscape:connector-curvature="0"
       id="path269-4"
       d="m 625.38132,-215.69618 -219.84588,25.43809"
       sodipodi:nodetypes="cc" />
    <polygon
       style="fill:#c0c0c0;stroke:#c0c0c0;stroke-width:2"
       id="polygon271-9"
       points="339.4185,-182.6265 347.5565,-189.4105 350.0108,-182.8548 "
       transform="translate(1.0576123,2.6440307)" />
  </g>
  <path
     style="fill:none;stroke:#c0c0c0;stroke-width:2.00024986;stroke-miterlimit:4;stroke-dasharray:2.00024981, 12.00149885;stroke-dashoffset:0"
     inkscape:connector-curvature="0"
     id="path269-4-5"
     d="M 202.48784,61.70309 137.42851,71.978711"
     sodipodi:nodetypes="cc" />
  <path
     style="fill:none;stroke:#009973;stroke-width:2.00024986;stroke-miterlimit:4;stroke-dasharray:2.00024981, 12.00149885;stroke-dashoffset:0;stroke-opacity:1"
     inkscape:connector-curvature="0"
     id="path269-4-5-5"
     d="m 198.64282,93.832897 -30.25888,0.04229"
     sodipodi:nodetypes="cc" />
  <path
     style="fill:none;stroke:#c0c0c0;stroke-width:2;stroke-miterlimit:4;stroke-dasharray:2.00000001, 12.00000004;stroke-dashoffset:0"
     inkscape:connector-curvature="0"
     id="path124-5"
     d="M 73.348878,116.34428 93.22146,155.84579"
     sodipodi:nodetypes="cc" />
  <path
     style="fill:none;stroke:#009900;stroke-width:2.0002501;stroke-miterlimit:4;stroke-dasharray:2.00024986, 12.00149913;stroke-dashoffset:0;stroke-opacity:1"
     inkscape:connector-curvature="0"
     id="path269-4-5-5-8"
     d="m 796.75423,192.60785 -42.5983,0.0423"
     sodipodi:nodetypes="cc" />
  <g
     class="node"
     id="node8-3"
     transform="translate(200.48494,257.62178)"
     style="stroke:#009973;stroke-opacity:1">
    <title
       id="title113-8">7</title>
    <text
       style="font-size:10px;font-family:sans;text-anchor:middle;fill:#000000;stroke:#009973;stroke-opacity:1"
       id="text117-7"
       font-size="10.00"
       y="-167.5"
       x="490">run\_data\_app</text>
  </g>
  <polygon
     points="1193.5001,-118.1087 1200.5001,-118.1086 1197,-108.1087 "
     id="polygon76-0"
     style="fill:#c0c0c0;stroke:#c0c0c0;stroke-width:2"
     transform="rotate(-25.476948,1537.0149,2269.5991)" />
  <polygon
     points="1193.5001,-118.1087 1200.5001,-118.1086 1197,-108.1087 "
     id="polygon76-2"
     style="fill:#c0c0c0;stroke:#c0c0c0;stroke-width:2"
     transform="rotate(-26.754411,1507.3302,2178.6949)" />
  <path
     style="fill:none;stroke:#c0c0c0;stroke-width:2.0002501;stroke-miterlimit:4;stroke-dasharray:2.00024993, 12.00149956;stroke-dashoffset:0;stroke-opacity:1"
     inkscape:connector-curvature="0"
     id="path269-4-5-5-8-4"
     d="m 803.56784,214.89243 -56.60814,8.49734"
     sodipodi:nodetypes="cc" />
  <polygon
     points="1283.586,-103.6569 1273.0902,-105.102 1282.1964,-110.5176 "
     id="polygon160-9"
     style="fill:#c0c0c0;stroke:#c0c0c0;stroke-width:2"
     transform="rotate(-16.608186,2072.0998,3347.9603)" />
  <polygon
     points="1273.0902,-105.102 1282.1964,-110.5176 1283.586,-103.6569 "
     id="polygon160-9-7"
     style="fill:#c0c0c0;stroke:#c0c0c0;stroke-width:2"
     transform="rotate(-2.043169,11218.015,25984.436)" />
  <polygon
     points="1273.0902,-105.102 1282.1964,-110.5176 1283.586,-103.6569 "
     id="polygon160-9-8"
     style="fill:#c0c0c0;stroke:#c0c0c0;stroke-width:2"
     transform="rotate(8.299306,-1804.5369,-6211.5382)" />
</svg>
