<?xml version="1.0" encoding="UTF-8" standalone="no"?>
<!-- Created with Inkscape (http://www.inkscape.org/) -->

<svg
   xmlns:dc="http://purl.org/dc/elements/1.1/"
   xmlns:cc="http://creativecommons.org/ns#"
   xmlns:rdf="http://www.w3.org/1999/02/22-rdf-syntax-ns#"
   xmlns:svg="http://www.w3.org/2000/svg"
   xmlns="http://www.w3.org/2000/svg"
   xmlns:sodipodi="http://sodipodi.sourceforge.net/DTD/sodipodi-0.dtd"
   xmlns:inkscape="http://www.inkscape.org/namespaces/inkscape"
   width="131.86259mm"
   height="124.5628mm"
   viewBox="0 0 131.86259 124.5628"
   version="1.1"
   id="svg8"
   inkscape:version="0.92.4 (33fec40, 2019-01-16)"
   sodipodi:docname="hand.svg">
  <defs
     id="defs2" />
  <sodipodi:namedview
     id="base"
     pagecolor="#ffffff"
     bordercolor="#666666"
     borderopacity="1.0"
     inkscape:pageopacity="0.0"
     inkscape:pageshadow="2"
     inkscape:zoom="0.98994949"
     inkscape:cx="215.21675"
     inkscape:cy="251.401"
     inkscape:document-units="mm"
     inkscape:current-layer="layer1"
     showgrid="true"
     inkscape:window-width="1920"
     inkscape:window-height="1025"
     inkscape:window-x="1520"
     inkscape:window-y="1467"
     inkscape:window-maximized="1"
     fit-margin-top="0"
     fit-margin-left="0"
     fit-margin-right="0"
     fit-margin-bottom="0">
    <inkscape:grid
       type="xygrid"
       id="grid815"
       originx="-33.179072"
       originy="-64.558268" />
  </sodipodi:namedview>
  <metadata
     id="metadata5">
    <rdf:RDF>
      <cc:Work
         rdf:about="">
        <dc:format>image/svg+xml</dc:format>
        <dc:type
           rdf:resource="http://purl.org/dc/dcmitype/StillImage" />
        <dc:title></dc:title>
      </cc:Work>
    </rdf:RDF>
  </metadata>
  <g
     inkscape:label="Layer 1"
     inkscape:groupmode="layer"
     id="layer1"
     transform="translate(-33.179072,-107.87894)">
    <path
       style="fill:#000000;fill-opacity:1;stroke:#ffffff;stroke-width:2;stroke-linecap:butt;stroke-linejoin:miter;stroke-miterlimit:4;stroke-dasharray:none;stroke-opacity:1"
       d="m 143.98116,181.90625 c 4.40972,2.64583 8.81944,5.29167 13.22917,7.9375 2.20486,-2.20486 4.40972,-4.40972 6.61458,-6.61458 -7.9375,-15.875 -15.875,-31.75 -23.8125,-47.625 -2.64583,-1.76389 -5.29167,-3.52777 -7.9375,-5.29166 -5.29167,1.76389 -10.58333,3.52777 -15.875,5.29166 9.26042,15.43403 18.52083,30.86805 27.78125,46.30208 z"
       id="path821"
       inkscape:connector-curvature="0" />
    <path
       style="fill:#000000;fill-opacity:1;stroke:#ffffff;stroke-width:2;stroke-linecap:butt;stroke-linejoin:miter;stroke-miterlimit:4;stroke-dasharray:none;stroke-opacity:1"
       d="m 108.26241,109.14583 c 18.52083,36.15972 37.04167,72.31945 55.5625,108.47917 -0.88195,4.40972 -1.76389,8.81945 -2.64583,13.22917 -4.41034,-2.80258 -9.23191,-5.22806 -13.38822,-8.26356 -17.58588,-36.05104 -35.17175,-72.10207 -52.757618,-108.15311 4.409723,-1.76389 8.819448,-3.52778 13.229168,-5.29167 z"
       id="path819"
       inkscape:connector-curvature="0" />
    <path
       style="fill:#000000;fill-opacity:1;stroke:#fcfcfc;stroke-width:2;stroke-linecap:butt;stroke-linejoin:miter;stroke-miterlimit:4;stroke-dasharray:none;stroke-opacity:1"
       d="m 153.24158,214.97917 c 3.52777,-1.76389 7.05555,-3.52778 10.58333,-5.29167 V 201.75 c -3.79405,-1.68287 -7.38796,-4.12382 -11.30791,-5.32981 -16.62928,-0.92158 -33.28614,-1.65921 -49.89821,-2.69568 -3.410462,-0.85261 -6.820918,-1.70523 -10.231378,-2.55784 1.04137,-3.56561 1.56664,-7.44656 2.91886,-10.82224 L 116.19991,162.0625 c -2.64583,-7.05556 -5.29167,-14.11111 -7.9375,-21.16667 -16.001678,7.0538 -26.074527,19.53155 -42.116577,26.45834 -8.70087,1.74017 -23.04913,3.5515 -31.75,5.29167 l -0.216761,42.33333 z"
       id="path817"
       inkscape:connector-curvature="0"
       sodipodi:nodetypes="ccccccccccccc" />
  </g>
</svg>
